<?xml version="1.0" encoding="UTF-8"?>
<svg version="1.1" xmlns="http://www.w3.org/2000/svg" width="433" height="423">
<path d="M0 0 C1.1741597 -0.0146228 1.1741597 -0.0146228 2.37203979 -0.02954102 C20.78440162 -0.21146113 38.43628993 0.27068565 56.50390625 4.23828125 C57.30376953 4.40956543 58.10363281 4.58084961 58.92773438 4.75732422 C95.58214968 12.93154151 127.96595681 33.08770655 155.25390625 58.30078125 C155.86830566 58.86651855 156.48270508 59.43225586 157.11572266 60.01513672 C193.07742433 93.70679842 215.61130833 143.22014881 218.50390625 192.23828125 C219.01523173 208.2636604 219.10280495 224.38463262 216.50390625 240.23828125 C216.39095215 240.98029785 216.27799805 241.72231445 216.16162109 242.48681641 C210.11280237 281.18468077 192.06183263 317.27432439 165.578125 345.9765625 C163.70269039 348.02152792 161.91358092 350.114476 160.12890625 352.23828125 C138.21110632 377.27283254 106.56865807 394.54700457 75.50390625 405.23828125 C74.42641113 405.61509033 74.42641113 405.61509033 73.32714844 405.99951172 C23.71103134 423.03067531 -33.99987451 417.00184038 -80.75073242 394.30444336 C-94.95861944 387.13482917 -108.57088986 378.80875345 -120.49609375 368.23828125 C-121.66696956 367.2446776 -122.84031989 366.2539854 -124.015625 365.265625 C-132.93937717 357.7444778 -140.92277606 350.17237493 -148.24609375 341.04296875 C-149.64237829 339.30246128 -151.05602395 337.57555136 -152.49609375 335.87109375 C-173.64764059 310.54041064 -187.25604504 278.42411391 -193.49609375 246.23828125 C-193.65980469 245.41021973 -193.82351562 244.5821582 -193.9921875 243.72900391 C-198.21440681 221.37479524 -198.77040215 195.63093655 -194.49609375 173.23828125 C-194.3347998 172.37267578 -194.17350586 171.50707031 -194.00732422 170.61523438 C-187.56222011 136.86339336 -174.36427194 105.92832481 -152.49609375 79.23828125 C-152.07392578 78.71459961 -151.65175781 78.19091797 -151.21679688 77.65136719 C-116.39512523 34.53009411 -66.1377775 6.36768423 -10.8318634 0.44447327 C-7.22098508 0.12571997 -3.62342323 0.0378957 0 0 Z " fill="#00F9A9" transform="translate(207.49609375,3.76171875)"/>
<path d="M0 0 C22.35818195 26.54611936 22.98816609 77.78045477 20.69140625 110.25390625 C20.30350996 114.53282917 19.69484795 118.76132948 19 123 C18.8870459 123.7420166 18.7740918 124.4840332 18.65771484 125.24853516 C12.60889612 163.94639952 -5.44207362 200.03604314 -31.92578125 228.73828125 C-33.80121586 230.78324667 -35.59032533 232.87619475 -37.375 235 C-59.29279993 260.03455129 -90.93524818 277.30872332 -122 288 C-123.07749512 288.37680908 -123.07749512 288.37680908 -124.17675781 288.76123047 C-173.79287491 305.79239406 -231.50378076 299.76355913 -278.25463867 277.06616211 C-292.48533673 269.88503696 -306.01339578 261.52903315 -318 251 C-320.05047339 249.29735699 -322.11929839 247.61873089 -324.1875 245.9375 C-325.79166667 244.625 -327.39583333 243.3125 -329 242 C-327.68 241.67 -326.36 241.34 -325 241 C-325 241.66 -325 242.32 -325 243 C-324.2575 242.9175 -323.515 242.835 -322.75 242.75 C-319.13439601 243.07869127 -318.46871397 244.4085323 -316 247 C-310.49167323 251.69967776 -304.81670803 255.93247214 -298.6171875 259.67578125 C-298.08351563 260.11277344 -297.54984375 260.54976563 -297 261 C-297 261.99 -297 262.98 -297 264 C-296.01 263.87625 -295.02 263.7525 -294 263.625 C-289.51765395 263.57963213 -287.1989639 265.84278277 -283.8671875 268.59765625 C-281.64118035 270.26949007 -279.77229281 270.8267317 -277 271 C-277 271.99 -277 272.98 -277 274 C-275.68 273.67 -274.36 273.34 -273 273 C-272.505 274.485 -272.505 274.485 -272 276 C-271.21625 276.0825 -270.4325 276.165 -269.625 276.25 C-264.06442078 277.40046467 -258.92735525 279.59905142 -253.8125 282.046875 C-247.41579489 285.10412377 -240.91957546 286.55553862 -234 288 C-232.49969397 288.35286803 -230.99965679 288.70688286 -229.5 289.0625 C-214.33179244 292.3779552 -198.9830181 293.1974744 -183.50390625 293.24023438 C-181.36940739 293.25002565 -179.23584118 293.28124283 -177.1015625 293.3125 C-169.54732463 293.36786795 -162.71813192 292.8275072 -155.43994141 290.54980469 C-152.85827873 289.96806521 -151.46770218 290.13158773 -149 291 C-148.67 290.34 -148.34 289.68 -148 289 C-146.27734375 288.76171875 -146.27734375 288.76171875 -143.9375 288.6875 C-138.86214568 288.2891437 -134.2742414 287.06787571 -129.4375 285.5625 C-128.72263428 285.34489014 -128.00776855 285.12728027 -127.27124023 284.90307617 C-125.4923176 284.33283443 -123.74259422 283.67313206 -122 283 C-121.67 282.34 -121.34 281.68 -121 281 C-120.05125 281.04125 -119.1025 281.0825 -118.125 281.125 C-114.89755144 281.34973818 -114.89755144 281.34973818 -113 279 C-111.07935144 278.27147813 -109.15692058 277.54702968 -107.22265625 276.85546875 C-104.3138991 275.73592953 -101.59060029 274.33954396 -98.82421875 272.91015625 C-97 272 -97 272 -94.125 270.875 C-91.8349359 270.09134615 -91.8349359 270.09134615 -90 268 C-88.01178687 267.60235737 -86.01055661 267.26224651 -84 267 C-84 266.34 -84 265.68 -84 265 C-78.25 262 -78.25 262 -76 262 C-76 261.34 -76 260.68 -76 260 C-73.8828125 258.4921875 -73.8828125 258.4921875 -71.125 256.875 C-70.22007812 256.33617187 -69.31515625 255.79734375 -68.3828125 255.2421875 C-66 254 -66 254 -64 254 C-63.34 252.68 -62.68 251.36 -62 250 C-61.01 250 -60.02 250 -59 250 C-58.67 249.01 -58.34 248.02 -58 247 C-57.0409375 246.5359375 -57.0409375 246.5359375 -56.0625 246.0625 C-53.54531085 244.7657662 -53.03113052 243.5778263 -52 241 C-51.01 241 -50.02 241 -49 241 C-49 240.34 -49 239.68 -49 239 C-46.625 236.375 -46.625 236.375 -44 234 C-43.34 234 -42.68 234 -42 234 C-41.67 233.01 -41.34 232.02 -41 231 C-39.35 230.67 -37.7 230.34 -36 230 C-36 229.34 -36 228.68 -36 228 C-35.195625 227.7525 -34.39125 227.505 -33.5625 227.25 C-32.716875 226.8375 -31.87125 226.425 -31 226 C-30.63451555 224.67511887 -30.3062434 223.33981486 -30 222 C-29.21625 221.2575 -28.4325 220.515 -27.625 219.75 C-24.98004464 216.97909439 -24.24140695 215.01157928 -23.08203125 211.4453125 C-21.3495346 207.52999517 -18.76986527 204.16506436 -16.22363281 200.74414062 C-13.68312357 197.26451607 -12.27281297 194.09285272 -11 190 C-9.70644173 188.62804426 -8.37701298 187.28817344 -7 186 C-6.67 185.01 -6.34 184.02 -6 183 C-5.34 183 -4.68 183 -4 183 C-4.061875 182.278125 -4.12375 181.55625 -4.1875 180.8125 C-3.9574512 177.36176807 -2.88227309 175.89063367 -1 173 C2.49243785 167.02905788 4.11877278 161.16197468 5.60522461 154.4597168 C6.80134963 149.19865037 6.80134963 149.19865037 9 147 C9.57329347 144.70260125 10.04770816 142.38018579 10.47265625 140.05078125 C10.60063095 139.35993942 10.72860565 138.6690976 10.86045837 137.95732117 C11.26849511 135.7436568 11.66544681 133.52815782 12.0625 131.3125 C12.3332959 129.83906601 12.60477265 128.36575698 12.87695312 126.89257812 C16.64927838 106.32767537 19.05690534 85.21545406 14.41015625 64.59765625 C13.59562212 59.43894009 13.85310933 54.20645836 14 49 C13.34 49 12.68 49 12 49 C11.76925781 47.89785156 11.53851563 46.79570312 11.30078125 45.66015625 C8.78127829 33.85613406 5.62070793 22.37170588 2.015625 10.85546875 C1.74234375 9.97503906 1.4690625 9.09460938 1.1875 8.1875 C0.95417969 7.45917969 0.72085937 6.73085937 0.48046875 5.98046875 C0 4 0 4 0 0 Z " fill="#20ECDB" transform="translate(405,121)"/>
<path d="M0 0 C0.78358887 -0.00952194 1.56717773 -0.01904388 2.37451172 -0.02885437 C4.89684744 -0.05321176 7.41896891 -0.06583388 9.94140625 -0.07421875 C10.80041534 -0.0781665 11.65942444 -0.08211426 12.54446411 -0.08618164 C27.54151895 -0.1183016 41.79072385 1.18226325 56.50390625 4.23828125 C56.50390625 4.56828125 56.50390625 4.89828125 56.50390625 5.23828125 C53.5455127 5.26517574 50.58736198 5.28506866 47.62890625 5.30078125 C46.36626953 5.31334961 46.36626953 5.31334961 45.078125 5.32617188 C44.27246094 5.32939453 43.46679688 5.33261719 42.63671875 5.3359375 C41.52127686 5.34379272 41.52127686 5.34379272 40.38330078 5.35180664 C38.50390625 5.23828125 38.50390625 5.23828125 36.50390625 4.23828125 C34.87647937 4.13788673 33.24500784 4.099937 31.61450195 4.09301758 C30.59616776 4.08663773 29.57783356 4.08025787 28.52864075 4.07368469 C27.42348618 4.07257187 26.3183316 4.07145905 25.1796875 4.0703125 C24.04492477 4.0669841 22.91016205 4.0636557 21.74101257 4.06022644 C19.33426316 4.05515495 16.9275067 4.05281818 14.52075195 4.05297852 C10.84900174 4.05080058 7.17755605 4.03267064 3.50585938 4.01367188 C1.16796978 4.01073625 -1.16992125 4.00875259 -3.5078125 4.0078125 C-4.60284592 4.00062698 -5.69787933 3.99344147 -6.82609558 3.98603821 C-13.99860207 4.00737778 -19.31914593 4.76747207 -25.87109375 7.80078125 C-28.8787885 8.99348779 -30.53467509 9.43923091 -33.62109375 9.67578125 C-40.53977675 10.25828205 -48.02707987 12.13073279 -53.984375 15.75 C-56.9019283 17.47875242 -59.66758538 18.27945622 -62.93359375 19.17578125 C-67.82351666 20.6211605 -71.57941507 21.97438235 -75.49609375 25.23828125 C-75.82609375 25.89828125 -76.15609375 26.55828125 -76.49609375 27.23828125 C-77.98109375 26.74328125 -77.98109375 26.74328125 -79.49609375 26.23828125 C-82.23134075 27.42306738 -84.80645569 28.66077356 -87.43359375 30.05078125 C-88.14966797 30.42009766 -88.86574219 30.78941406 -89.60351562 31.16992188 C-90.94497717 31.86240944 -92.28433965 32.55898973 -93.62084961 33.26098633 C-94.23968018 33.58349365 -94.85851074 33.90600098 -95.49609375 34.23828125 C-96.5181189 34.79068481 -96.5181189 34.79068481 -97.56079102 35.35424805 C-99.97187669 36.45561568 -101.87621698 36.38382996 -104.49609375 36.23828125 C-104.70234375 36.81578125 -104.90859375 37.39328125 -105.12109375 37.98828125 C-106.98126562 41.03219886 -109.55182503 42.27543544 -112.49609375 44.23828125 C-112.77195312 44.84414063 -113.0478125 45.45 -113.33203125 46.07421875 C-114.98903369 49.15468638 -117.36836607 50.73649682 -120.12109375 52.86328125 C-121.94815291 54.27702111 -123.74995125 55.7257364 -125.49609375 57.23828125 C-125.49609375 57.89828125 -125.49609375 58.55828125 -125.49609375 59.23828125 C-126.48609375 59.23828125 -127.47609375 59.23828125 -128.49609375 59.23828125 C-128.49609375 59.89828125 -128.49609375 60.55828125 -128.49609375 61.23828125 C-129.921875 62.5703125 -129.921875 62.5703125 -131.80859375 64.05078125 C-134.8357051 66.545121 -136.50067921 68.85475225 -138.49609375 72.23828125 C-139.51034382 73.14491858 -140.55462939 74.01868181 -141.62109375 74.86328125 C-144.705885 76.98432342 -144.705885 76.98432342 -145.49609375 80.23828125 C-144.50609375 80.73328125 -144.50609375 80.73328125 -143.49609375 81.23828125 C-144.48609375 81.89828125 -145.47609375 82.55828125 -146.49609375 83.23828125 C-146.82609375 82.90828125 -147.15609375 82.57828125 -147.49609375 82.23828125 C-151.1684008 85.31828071 -152.0641174 87.48654145 -152.49609375 92.23828125 C-153.25921875 92.25890625 -154.02234375 92.27953125 -154.80859375 92.30078125 C-156.13890625 92.76484375 -156.13890625 92.76484375 -157.49609375 93.23828125 C-159.1649131 96.65996974 -159.1649131 96.65996974 -160.49609375 100.23828125 C-161.48609375 100.89828125 -162.47609375 101.55828125 -163.49609375 102.23828125 C-164.56663528 104.2014269 -165.55383894 106.21043612 -166.49609375 108.23828125 C-167.14855962 109.52082938 -167.80637559 110.80066598 -168.46875 112.078125 C-169.16544796 113.44396789 -169.86206129 114.80985395 -170.55859375 116.17578125 C-170.90986328 116.85318359 -171.26113281 117.53058594 -171.62304688 118.22851562 C-173.28088781 121.49718877 -174.55329978 124.44114102 -175.5546875 127.9921875 C-176.47836609 131.17715391 -177.48789874 132.68761278 -179.49609375 135.23828125 C-182.27710556 141.89885402 -183.8941383 148.72626316 -185.0703125 155.82421875 C-186.3806898 163.2536974 -186.3806898 163.2536974 -189.00317383 165.56860352 C-191.01345504 167.81689676 -191.09569681 169.47357968 -191.4453125 172.453125 C-191.57131836 173.51829346 -191.69732422 174.58346191 -191.82714844 175.6809082 C-191.94477539 176.83421631 -192.06240234 177.98752441 -192.18359375 179.17578125 C-192.31024414 180.36840576 -192.43689453 181.56103027 -192.56738281 182.78979492 C-194.28145862 200.47226559 -194.35754876 218.55445864 -192.49609375 236.23828125 C-191.83609375 236.23828125 -191.17609375 236.23828125 -190.49609375 236.23828125 C-187.26879803 247.76433741 -187.26879803 247.76433741 -187.49609375 252.30078125 C-187.49609375 256.75562077 -186.53145831 260.29151 -185.2734375 264.53515625 C-184.61174851 266.83610489 -184.1186746 269.0754476 -183.68359375 271.42578125 C-182.1725156 278.60011753 -179.15344724 285.42776837 -176.49609375 292.23828125 C-177.15609375 292.56828125 -177.81609375 292.89828125 -178.49609375 293.23828125 C-190.17645132 265.31077704 -196.7318263 238.06847353 -196.68359375 207.67578125 C-196.68265717 206.91550629 -196.68172058 206.15523132 -196.68075562 205.37191772 C-196.65179242 194.54182122 -196.53302938 183.90957427 -194.49609375 173.23828125 C-194.3347998 172.37267578 -194.17350586 171.50707031 -194.00732422 170.61523438 C-187.56222011 136.86339336 -174.36427194 105.92832481 -152.49609375 79.23828125 C-152.07392578 78.71459961 -151.65175781 78.19091797 -151.21679688 77.65136719 C-116.39512523 34.53009411 -66.1377775 6.36768423 -10.8318634 0.44447327 C-7.22099605 0.12572094 -3.6234176 0.03776493 0 0 Z " fill="#10F269" transform="translate(207.49609375,3.76171875)"/>
<path d="M0 0 C0.77085937 0.09023437 1.54171875 0.18046875 2.3359375 0.2734375 C4.625 0.625 4.625 0.625 6.7890625 1.2265625 C8.70914378 1.84406732 8.70914378 1.84406732 10.625 0.625 C16.32441954 0.07697889 19.19032643 1.01538198 23.625 4.625 C26.32492542 8.67488813 26.39038473 11.86984379 25.625 16.625 C22.324876 22.26714749 17.86633719 24.8488484 11.625 26.625 C5.01503275 27.73530847 0.2046072 26.5859483 -5.4609375 23.0625 C-8.5882829 20.71379978 -10.63865963 18.09768074 -12.375 14.625 C-12.85247649 11.1462427 -13.04617492 8.67203288 -11.10546875 5.64453125 C-7.54334725 1.44105455 -5.67291133 -0.69733462 0 0 Z " fill="#010300" transform="translate(216.375,199.375)"/>
<path d="M0 0 C3.375 1.6875 3.375 1.6875 6 4 C6.78375 4.66 7.5675 5.32 8.375 6 C10.99311649 10.83344583 10.70650014 15.63205567 10 21 C7.95746694 25.57527405 5.2463539 28.07923994 0.8515625 30.3046875 C-3.81551538 32.05730324 -7.74314366 31.33869688 -12.1875 29.4375 C-16.33554463 27.12587125 -18.61398757 24.56517844 -20 20 C-20.76365416 14.98056482 -20.59114596 11.22776469 -18.375 6.625 C-12.86194006 0.53161796 -8.0779523 -1.30247114 0 0 Z " fill="#010903" transform="translate(181,196)"/>
<path d="M0 0 C4.37058408 2.26064694 6.95088265 4.88640653 9 9.3125 C9.78245497 14.19276038 9.66177336 18.71006662 7.4375 23.1875 C3.55409014 28.16623059 0.3058287 29.9830959 -5.9375 30.875 C-10.68605052 30.6163241 -14.50183791 28.45386507 -18 25.3125 C-21.40657195 20.67359673 -21.61983972 16.8880184 -21.48828125 11.265625 C-20.73851971 6.73106719 -18.59837193 4.06905098 -15 1.3125 C-10.3202938 -1.48586977 -5.1609882 -1.77408969 0 0 Z " fill="#010B05" transform="translate(276,196.6875)"/>
<path d="M0 0 C22.35818195 26.54611936 22.98816609 77.78045477 20.69140625 110.25390625 C20.30350996 114.53282917 19.69484795 118.76132948 19 123 C18.83056885 124.1130249 18.83056885 124.1130249 18.65771484 125.24853516 C12.71177455 163.28822545 12.71177455 163.28822545 4 172 C4.34369354 166.8445969 5.06931401 162.53252768 6.875 157.6875 C9.3711761 150.61349915 10.25947568 143.46198469 11.27734375 136.06640625 C12.09312128 130.16071555 13.20518942 124.32943679 14.3515625 118.48046875 C17.62600532 100.90499557 18.35268588 82.09080623 14.41015625 64.59765625 C13.59562212 59.43894009 13.85310933 54.20645836 14 49 C13.34 49 12.68 49 12 49 C11.76925781 47.89785156 11.53851563 46.79570312 11.30078125 45.66015625 C8.78127829 33.85613406 5.62070793 22.37170588 2.015625 10.85546875 C1.74234375 9.97503906 1.4690625 9.09460938 1.1875 8.1875 C0.95417969 7.45917969 0.72085937 6.73085937 0.48046875 5.98046875 C0 4 0 4 0 0 Z " fill="#1EEACF" transform="translate(405,121)"/>
<path d="M0 0 C1.32 0 2.64 0 4 0 C4 0.66 4 1.32 4 2 C5.11375 1.87625 5.11375 1.87625 6.25 1.75 C9.86560399 2.07869127 10.53128603 3.4085323 13 6 C18.50832677 10.69967776 24.18329197 14.93247214 30.3828125 18.67578125 C30.91648437 19.11277344 31.45015625 19.54976563 32 20 C32 20.99 32 21.98 32 23 C32.99 22.87625 33.98 22.7525 35 22.625 C39.48234605 22.57963213 41.8010361 24.84278277 45.1328125 27.59765625 C47.35881965 29.26949007 49.22770719 29.8267317 52 30 C52 30.99 52 31.98 52 33 C53.98 32.505 53.98 32.505 56 32 C56.33 32.99 56.66 33.98 57 35 C57.78375 35.0825 58.5675 35.165 59.375 35.25 C64.93557922 36.40046467 70.07264475 38.59905142 75.1875 41.046875 C81.58420511 44.10412377 88.08042454 45.55553862 95 47 C96.50030603 47.35286803 98.00034321 47.70688286 99.5 48.0625 C114.66820756 51.3779552 130.0169819 52.1974744 145.49609375 52.24023438 C147.63059261 52.25002565 149.76415882 52.28124283 151.8984375 52.3125 C159.45267537 52.36786795 166.28186808 51.8275072 173.56005859 49.54980469 C176.14172127 48.96806521 177.53229782 49.13158773 180 50 C180 50.66 180 51.32 180 52 C166.34129283 54.75139425 152.88729702 55.30987784 139 55.3125 C138.14968201 55.31572266 137.29936401 55.31894531 136.42327881 55.32226562 C133.96944368 55.32794156 131.51627406 55.31766857 129.0625 55.30078125 C128.32363556 55.30157181 127.58477112 55.30236237 126.82351685 55.30317688 C122.73117641 55.24762434 119.72580892 54.63374484 116 53 C113.91948667 52.76633464 113.91948667 52.76633464 111.83203125 52.8671875 C75.43384347 53.01058879 38.49512401 32.7078374 11 10 C9.98808594 9.1853125 8.97617188 8.370625 7.93359375 7.53125 C2.06965333 2.79815888 2.06965333 2.79815888 0 1 C0 0.67 0 0.34 0 0 Z " fill="#2EE9C2" transform="translate(76,362)"/>
<path d="M0 0 C0.33 0 0.66 0 1 0 C1.572048 5.29144404 -0.06791976 9.18647882 -1.92578125 14.0234375 C-3.31424934 17.87075637 -4.26397241 21.75920285 -5.2109375 25.734375 C-6.12243142 29.50669636 -7.11672044 33.25262162 -8.125 37 C-9.39196498 41.5985483 -9.39196498 41.5985483 -10.4296875 46.25 C-11 48 -11 48 -12.47631836 49.28344727 C-14.50193579 51.56547196 -14.59538745 53.19937161 -14.94921875 56.21484375 C-15.07522461 57.28001221 -15.20123047 58.34518066 -15.33105469 59.44262695 C-15.44868164 60.59593506 -15.56630859 61.74924316 -15.6875 62.9375 C-15.81415039 64.13012451 -15.94080078 65.32274902 -16.07128906 66.55151367 C-17.78536487 84.23398434 -17.86145501 102.31617739 -16 120 C-15.34 120 -14.68 120 -14 120 C-10.77270428 131.52605616 -10.77270428 131.52605616 -11 136.0625 C-11 140.51733952 -10.03536456 144.05322875 -8.77734375 148.296875 C-8.11565476 150.59782364 -7.62258085 152.83716635 -7.1875 155.1875 C-5.67642185 162.36183628 -2.65735349 169.18948712 0 176 C-0.66 176.33 -1.32 176.66 -2 177 C-13.68035757 149.07249579 -20.23573255 121.83019228 -20.1875 91.4375 C-20.18656342 90.67722504 -20.18562683 89.91695007 -20.18466187 89.13363647 C-20.15569867 78.30353997 -20.03693563 67.67129302 -18 57 C-17.83870605 56.13439453 -17.67741211 55.26878906 -17.51123047 54.37695312 C-13.86135951 35.26324103 -8.12823836 17.65126317 0 0 Z " fill="#61E9B0" transform="translate(31,120)"/>
<path d="M0 0 C0 0.33 0 0.66 0 1 C-2.95839355 1.02689449 -5.91654427 1.04678741 -8.875 1.0625 C-10.13763672 1.07506836 -10.13763672 1.07506836 -11.42578125 1.08789062 C-12.23144531 1.09111328 -13.03710938 1.09433594 -13.8671875 1.09765625 C-14.98262939 1.10551147 -14.98262939 1.10551147 -16.12060547 1.11352539 C-18 1 -18 1 -20 0 C-21.62742688 -0.10039452 -23.25889841 -0.13834425 -24.8894043 -0.14526367 C-25.90773849 -0.15164352 -26.92607269 -0.15802338 -27.9752655 -0.16459656 C-29.08042007 -0.16570938 -30.18557465 -0.1668222 -31.32421875 -0.16796875 C-32.45898148 -0.17129715 -33.5937442 -0.17462555 -34.76289368 -0.17805481 C-37.16964309 -0.1831263 -39.57639955 -0.18546307 -41.9831543 -0.18530273 C-45.65490451 -0.18748067 -49.3263502 -0.20561061 -52.99804688 -0.22460938 C-55.33593647 -0.227545 -57.6738275 -0.22952866 -60.01171875 -0.23046875 C-61.10675217 -0.23765427 -62.20178558 -0.24483978 -63.33000183 -0.25224304 C-68.98572808 -0.23541618 -73.64980458 0.16899722 -79 2 C-81.30757957 2.30997337 -83.62087641 2.57955774 -85.9375 2.8125 C-94.34892434 3.86080808 -101.98185184 6.33563619 -110 9 C-112.07744502 9.64430193 -114.16020427 10.27196054 -116.25 10.875 C-117.08015625 11.11992187 -117.9103125 11.36484375 -118.765625 11.6171875 C-121.20802673 12.03564094 -122.64602217 11.66294441 -125 11 C-112.1960737 5.9740244 -99.47111704 1.82471739 -86 -1 C-84.86328857 -1.2477417 -84.86328857 -1.2477417 -83.70361328 -1.50048828 C-56.75793658 -7.12459132 -26.80349577 -5.56725005 0 0 Z " fill="#5AEAAA" transform="translate(264,8)"/>
<path d="M0 0 C5.4389165 -0.21755666 9.87080814 -0.10428384 15 2 C15.33 1.67 15.66 1.34 16 1 C20.76533146 0.71968638 24.71182952 0.80826842 29 3 C34.55160039 9.28207412 33.36553801 17.1104713 33 25 C32.37867188 25.28746094 31.75734375 25.57492188 31.1171875 25.87109375 C28.85906607 26.92268271 28.85906607 26.92268271 27.125 29.0625 C22.9210705 32.89549454 16.80833856 32.16027886 11.375 32.1875 C9.43753906 32.20876953 9.43753906 32.20876953 7.4609375 32.23046875 C2.59031617 31.90612715 0.2356268 30.50526237 -3 27 C-3.680625 26.38125 -4.36125 25.7625 -5.0625 25.125 C-8.93522173 20.87749874 -9.39827861 16.72205886 -9.25 11.15234375 C-8.89411403 8.08838795 -8.03164142 6.31186783 -6 4 C-3.375 2.8125 -3.375 2.8125 -1 2 C-0.67 1.34 -0.34 0.68 0 0 Z M-5 9 C-6.5547669 12.10953379 -6.28644437 14.56266761 -6 18 C-3.00787203 24.23359994 2.03398113 27.01699056 8 30 C15.83648947 30.90364056 22.36786347 29.56068439 28.671875 24.71484375 C31.48149076 21.88155146 32.35765827 19.29108498 32.5625 15.4375 C32.31258665 11.19611343 31.19065954 8.92477125 28 6 C24.51814134 3.47865407 21.19241979 3.77540608 17 4 C15.948125 4.309375 15.948125 4.309375 14.875 4.625 C12.18608516 5.16278297 10.51299367 4.0171641 8 3 C1.96363217 1.9501969 -1.05775725 4.80797328 -5 9 Z " fill="#29E09C" transform="translate(210,196)"/>
<path d="M0 0 C3.45105456 1.50491192 5.86724097 3.51583979 8.625 6.0625 C12.56344583 9.68385615 12.56344583 9.68385615 16.55859375 13.2421875 C34.27609189 28.77609382 49.90497044 49.62229033 60 71 C60 71.66 60 72.32 60 73 C58.125 72.6875 58.125 72.6875 56 72 C54 69 54 69 54 65 C53.34 65 52.68 65 52 65 C51.608125 63.80375 51.21625 62.6075 50.8125 61.375 C49.69324202 58.32932685 48.48495408 56.15698038 46.3125 53.75 C44 51 44 51 44 47 C43.34 47 42.68 47 42 47 C42 46.34 42 45.68 42 45 C41.34 45 40.68 45 40 45 C40 44.34 40 43.68 40 43 C39.01 42.67 38.02 42.34 37 42 C36.505 39.03 36.505 39.03 36 36 C34.35 36 32.7 36 31 36 C30.67 35.01 30.34 34.02 30 33 C29.01 32.34 28.02 31.68 27 31 C27 30.01 27 29.02 27 28 C25.68 27.67 24.36 27.34 23 27 C22.67 25.02 22.34 23.04 22 21 C20.68 21 19.36 21 18 21 C17.773125 20.443125 17.54625 19.88625 17.3125 19.3125 C16.00796402 16.77527615 16.00796402 16.77527615 13.375 14.375 C12.59125 13.59125 11.8075 12.8075 11 12 C11 11.34 11 10.68 11 10 C9.68 10 8.36 10 7 10 C7 8.68 7 7.36 7 6 C6.21625 5.7525 5.4325 5.505 4.625 5.25 C1.67682892 3.84610901 1.0975223 2.99324263 0 0 Z " fill="#3AE9BE" transform="translate(345,48)"/>
<path d="M0 0 C6.30637455 0.57529283 11.89060256 2.02198438 17.875 4.0625 C18.79265137 4.37413086 19.71030273 4.68576172 20.65576172 5.00683594 C73.10208015 23.2041603 73.10208015 23.2041603 81 39 C78.61435923 38.42415568 76.33317216 37.77772405 74 37 C74 36.34 74 35.68 74 35 C73.34 35 72.68 35 72 35 C71.67 34.34 71.34 33.68 71 33 C68.84211688 32.05431417 66.64787878 31.19047955 64.4375 30.375 C63.23996094 29.92898437 62.04242188 29.48296875 60.80859375 29.0234375 C59.88175781 28.68570313 58.95492187 28.34796875 58 28 C58 27.34 58 26.68 58 26 C57.34 26 56.68 26 56 26 C56 25.01 56 24.02 56 23 C54.35 23 52.7 23 51 23 C51 22.34 51 21.68 51 21 C47.97265625 20.31640625 47.97265625 20.31640625 44.9453125 19.6328125 C43 19 43 19 41 17 C38.66836622 16.32741333 36.3347961 15.66152556 34 15 C31.97843296 14.04435012 29.97033426 13.05725253 28 12 C28 11.34 28 10.68 28 10 C26.90300781 9.81824219 25.80601562 9.63648438 24.67578125 9.44921875 C23.22126033 9.19585059 21.7668383 8.94191427 20.3125 8.6875 C19.59126953 8.56955078 18.87003906 8.45160156 18.12695312 8.33007812 C13.78655847 7.55713113 10.72701575 6.46717944 7 4 C4.68308546 3.27833809 2.35151077 2.59940471 0 2 C0 1.34 0 0.68 0 0 Z " fill="#4CEBB5" transform="translate(264,9)"/>
<path d="M0 0 C1.77049689 -0.05410687 3.54146849 -0.09284119 5.3125 -0.125 C6.29863281 -0.14820313 7.28476562 -0.17140625 8.30078125 -0.1953125 C11 0 11 0 14 2 C14 2.66 14 3.32 14 4 C16.63904371 5.41377341 19.07120629 6.37240135 22 7 C22 7.66 22 8.32 22 9 C21.34 9 20.68 9 20 9 C20 9.99 20 10.98 20 12 C20.66 12 21.32 12 22 12 C22.92453291 25.47763525 22.92453291 25.47763525 18.5078125 31.484375 C16.30874925 33.69483236 13.86016449 34.82993271 11 36 C10.67 36.66 10.34 37.32 10 38 C9.34 38 8.68 38 8 38 C8 37.34 8 36.68 8 36 C4.37 36 0.74 36 -3 36 C-3.33 36.66 -3.66 37.32 -4 38 C-10.70387244 29.92255125 -10.70387244 29.92255125 -11 24 C-10.484375 24.7425 -9.96875 25.485 -9.4375 26.25 C-6.17197715 29.93417962 -2.8287257 32.5159975 2.0546875 33.3515625 C6.58818862 33.53974557 9.34870675 32.57738347 13 30 C13.66 30 14.32 30 15 30 C17.96208265 24.27330688 18.70845791 19.40605606 18 13 C15.65027825 8.02943476 13.15218868 5.84701104 8 4 C5.006355 3.50024257 2.02788784 3.19513055 -1 3 C-0.67 2.01 -0.34 1.02 0 0 Z " fill="#15F0AF" transform="translate(266,193)"/>
<path d="M0 0 C1.35509745 3.69177189 0.60477537 5.81985708 -0.75 9.4375 C-2.24260215 13.58693398 -3.28562734 17.46865332 -4 21.8125 C-5.48865437 28.64376948 -8.52714515 34.51118235 -11.75 40.6875 C-12.25144531 41.64954346 -12.75289063 42.61158691 -13.26953125 43.6027832 C-22.50936591 60.82260934 -22.50936591 60.82260934 -28.4375 63.625 C-29.283125 63.74875 -30.12875 63.8725 -31 64 C-29.64586345 60.20164698 -27.90567492 57.28875472 -25.5 54.0625 C-22.87101395 50.41444307 -21.33272084 47.30571349 -20 43 C-18.70644173 41.62804426 -17.37701298 40.28817344 -16 39 C-15.67 38.01 -15.34 37.02 -15 36 C-14.34 36 -13.68 36 -13 36 C-13.061875 35.278125 -13.12375 34.55625 -13.1875 33.8125 C-12.9574512 30.36176807 -11.88227309 28.89063367 -10 26 C-6.50756215 20.02905788 -4.88122722 14.16197468 -3.39477539 7.4597168 C-2.19865037 2.19865037 -2.19865037 2.19865037 0 0 Z " fill="#59E6DD" transform="translate(414,268)"/>
<path d="M0 0 C0.66 0 1.32 0 2 0 C2 0.99 2 1.98 2 3 C2.99 3.33 3.98 3.66 5 4 C6.0625 5.75 6.0625 5.75 7 8 C7.3403125 8.804375 7.680625 9.60875 8.03125 10.4375 C9.2482414 13.65663855 10.21586018 16.92325963 11.09375 20.25 C11.54234375 21.11625 11.54234375 21.11625 12 22 C12.64066406 22.15984375 13.28132813 22.3196875 13.94140625 22.484375 C16 23 16 23 17.30859375 24.890625 C17.68113281 25.66921875 18.05367187 26.4478125 18.4375 27.25 C20.50063153 31.23788228 22.6840947 33.92672192 26 37 C29.62369478 40.85690286 32.02833118 44.07082794 34 49 C36.01735205 50.34410262 36.01735205 50.34410262 38 51 C38 52.65 38 54.3 38 56 C39.65 56 41.3 56 43 56 C43.495 57.98 43.495 57.98 44 60 C44.66 60 45.32 60 46 60 C46 61.65 46 63.3 46 65 C27.74890488 50.31977132 14.78284879 30.07096571 3.875 9.625 C3.4843335 8.89313477 3.09366699 8.16126953 2.69116211 7.40722656 C0 2.25615019 0 2.25615019 0 0 Z " fill="#38E6B4" transform="translate(30,297)"/>
<path d="M0 0 C0.33 0 0.66 0 1 0 C1.572048 5.29144404 -0.06791976 9.18647882 -1.92578125 14.0234375 C-3.31424934 17.87075637 -4.26397241 21.75920285 -5.2109375 25.734375 C-6.12243142 29.50669636 -7.11672044 33.25262162 -8.125 37 C-9.39196498 41.5985483 -9.39196498 41.5985483 -10.4296875 46.25 C-11 48 -11 48 -12.48828125 49.26953125 C-14.8630571 51.98794392 -14.83498574 55.2238048 -15.1875 58.6875 C-15.26935547 59.38939453 -15.35121094 60.09128906 -15.43554688 60.81445312 C-15.63529273 62.54166726 -15.81919988 64.27070003 -16 66 C-16.33 66 -16.66 66 -17 66 C-17.18521911 42.31841377 -9.93668573 21.27448147 0 0 Z " fill="#25E684" transform="translate(31,120)"/>
<path d="M0 0 C-3.00266675 1.66814819 -5.63749345 2.36953002 -9 3 C-15.77112981 4.36116182 -22.04280953 5.67636342 -28.1171875 9.03125 C-30.16431603 10.08454435 -32.18359125 10.79752751 -34.375 11.5 C-37.73575247 12.57940834 -41.06782897 13.7021178 -44.375 14.9375 C-45.18710938 15.23527344 -45.99921875 15.53304688 -46.8359375 15.83984375 C-49.34225823 17.18348501 -50.46892557 18.63424305 -52 21 C-52.99 20.67 -53.98 20.34 -55 20 C-57.49249817 21.0183679 -57.49249817 21.0183679 -60.0625 22.5 C-62.72265625 23.96875 -62.72265625 23.96875 -65 25 C-65.66 24.67 -66.32 24.34 -67 24 C-65.36587557 22.29159719 -64.13093906 21.06546953 -62 20 C-61.67 19.01 -61.34 18.02 -61 17 C-52.66084305 11.48236232 -44.28076901 9.13382838 -34.54296875 7.60546875 C-31.13751172 7.0234998 -28.34044065 6.14992281 -25.18359375 4.828125 C-17.19005891 1.79658764 -8.58130068 -0.70051434 0 0 Z " fill="#13F07C" transform="translate(183,10)"/>
<path d="M0 0 C-10.37127484 6.91418322 -26.85622813 7.45274508 -39 9 C-40.04414063 9.1340625 -41.08828125 9.268125 -42.1640625 9.40625 C-62.82538993 11.54978829 -83.6165637 9.59502387 -104 6 C-104 5.67 -104 5.34 -104 5 C-101.43721301 4.94579299 -98.87558517 4.90622993 -96.3125 4.875 C-95.59126953 4.85824219 -94.87003906 4.84148437 -94.12695312 4.82421875 C-88.5091327 4.77291445 -88.5091327 4.77291445 -85.76782227 5.99560547 C-82.08581153 7.33174309 -78.59143665 7.28625792 -74.7265625 7.265625 C-73.5253627 7.26849518 -73.5253627 7.26849518 -72.29989624 7.27142334 C-70.60373623 7.27278187 -68.9075657 7.26910865 -67.21142578 7.26074219 C-64.66804315 7.25017877 -62.12538995 7.26057476 -59.58203125 7.2734375 C-50.63831915 7.27999111 -42.01332728 6.84317998 -33.17724609 5.42871094 C-30.07450526 5.01005311 -27.12632931 4.92557765 -24 5 C-24 4.34 -24 3.68 -24 3 C-22.66195312 2.80083984 -22.66195312 2.80083984 -21.296875 2.59765625 C-20.12640625 2.42105469 -18.9559375 2.24445313 -17.75 2.0625 C-16.00976562 1.80146484 -16.00976562 1.80146484 -14.234375 1.53515625 C-11.15778181 1.07462337 -11.15778181 1.07462337 -8.8125 0.4375 C-5.89434344 -0.26688262 -2.98501998 -0.05740423 0 0 Z " fill="#64E8DD" transform="translate(280,409)"/>
<path d="M0 0 C0.66 1.32 1.32 2.64 2 4 C2.66 3.34 3.32 2.68 4 2 C3.61358201 21.25064172 -3.16159353 39.22982857 -10 57 C-11.2426948 53.2719156 -10.60373206 51.42019819 -9.6875 47.625 C-9.42324219 46.50351562 -9.15898437 45.38203125 -8.88671875 44.2265625 C-8 41 -8 41 -6.984375 38.66796875 C-5.54424395 34.76475641 -5.11707235 30.79781382 -4.5625 26.6875 C-3.29323769 17.73594727 -1.74666795 8.86960461 0 0 Z " fill="#36EDDA" transform="translate(420,236)"/>
<path d="M0 0 C1.093125 0 2.18625 0 3.3125 0 C6.91393107 1.34006737 8.21849564 3.03020066 10.09375 6.3359375 C12.16316609 12.41930721 12.02628836 19.92113492 10 26 C9.34 26 8.68 26 8 26 C7.690625 26.86625 7.690625 26.86625 7.375 27.75 C5.42099579 30.94746144 3.27019442 32.18615223 0 34 C-3.76171875 34.4609375 -3.76171875 34.4609375 -7.6875 34.375 C-8.99074219 34.36210937 -10.29398438 34.34921875 -11.63671875 34.3359375 C-15 34 -15 34 -18 32 C-18.1875 29.375 -18.1875 29.375 -18 27 C-17.67 27.66 -17.34 28.32 -17 29 C-11.5201714 31.45150227 -6.02442345 33.51740556 -0.09375 31.28125 C3.96516336 29.14860061 6.0198499 27.06513167 8 23 C8.75199291 18.34391058 9.10402184 13.29128342 7.015625 8.95703125 C4.76045353 6.13806692 2.30693956 4.34212172 -1 3 C-6.24239414 2.42035317 -11.26260015 2.47338675 -16 5 C-15 2 -15 2 -13.0625 0.8125 C-8.6628078 -0.35476528 -4.52127243 -0.19626102 0 0 Z " fill="#25E498" transform="translate(182,194)"/>
<path d="M0 0 C0.63164062 0.13277344 1.26328125 0.26554687 1.9140625 0.40234375 C14.3301083 2.85334991 26.87671704 3.20537422 39.49609375 3.24023438 C41.63059261 3.25002565 43.76415882 3.28124283 45.8984375 3.3125 C53.45267537 3.36786795 60.28186808 2.8275072 67.56005859 0.54980469 C70.14172127 -0.03193479 71.53229782 0.13158773 74 1 C74 1.66 74 2.32 74 3 C60.34129283 5.75139425 46.88729702 6.30987784 33 6.3125 C32.14968201 6.31572266 31.29936401 6.31894531 30.42327881 6.32226562 C27.96944368 6.32794156 25.51627406 6.31766857 23.0625 6.30078125 C22.32363556 6.30157181 21.58477112 6.30236237 20.82351685 6.30317688 C16.75758955 6.2479829 13.67476458 5.7339116 10 4 C8.2384872 3.58340865 6.46686867 3.20714882 4.6875 2.875 C3.80449219 2.70742188 2.92148438 2.53984375 2.01171875 2.3671875 C1.34785156 2.24601562 0.68398437 2.12484375 0 2 C0 1.34 0 0.68 0 0 Z " fill="#1BEBD0" transform="translate(182,411)"/>
<path d="M0 0 C-0.33 0.99 -0.66 1.98 -1 3 C-3.0625 3.6875 -3.0625 3.6875 -5 4 C-5.08765625 4.61359375 -5.1753125 5.2271875 -5.265625 5.859375 C-6 8 -6 8 -7.671875 9.265625 C-14.6043956 12.54945055 -14.6043956 12.54945055 -19 12 C-19.309375 12.86625 -19.309375 12.86625 -19.625 13.75 C-21.49226612 16.80552637 -24.01934365 18.07499277 -27 20 C-27.66 20.99 -28.32 21.98 -29 23 C-33.44444444 26 -33.44444444 26 -36 26 C-36.185625 26.61875 -36.37125 27.2375 -36.5625 27.875 C-38.71437233 31.05602866 -41.37533763 31.19451947 -45 32 C-43.35835556 30.30363408 -41.68839577 28.64949264 -40 27 C-39.39929688 26.3915625 -38.79859375 25.783125 -38.1796875 25.15625 C-30.15570913 17.4486292 -11.48597506 0 0 0 Z " fill="#3FE786" transform="translate(122,28)"/>
<path d="M0 0 C5.625 -0.25 5.625 -0.25 9 2 C11.27351657 2.38426871 11.27351657 2.38426871 13.75 2.5 C18.07054049 2.86160368 21.85004389 3.68948755 26 5 C27.87284858 5.52851733 29.74803887 6.048779 31.625 6.5625 C32.97464844 6.93568359 32.97464844 6.93568359 34.3515625 7.31640625 C36.97188042 8.03892379 36.97188042 8.03892379 39.5859375 8.40234375 C42.33349916 9.08256533 43.8021419 10.26150411 46 12 C36.45323339 12.53910459 28.6594827 11.21135089 19.625 8.1875 C18.50222656 7.83107422 17.37945312 7.47464844 16.22265625 7.10742188 C10.68411909 5.32554304 5.29276133 3.41758695 0 1 C0 0.67 0 0.34 0 0 Z " fill="#33EBCF" transform="translate(138,402)"/>
<path d="M0 0 C0.33 0 0.66 0 1 0 C4.22729572 11.52605616 4.22729572 11.52605616 4 16.0625 C4 20.51733952 4.96463544 24.05322875 6.22265625 28.296875 C6.88434524 30.59782364 7.37741915 32.83716635 7.8125 35.1875 C9.32357815 42.36183628 12.34264651 49.18948712 15 56 C14.01 56.495 14.01 56.495 13 57 C4.81509503 37.43005391 -0.9966171 21.41619416 0 0 Z " fill="#36E9A5" transform="translate(16,240)"/>
<path d="M0 0 C1.1409613 -0.00095673 2.28192261 -0.00191345 3.4574585 -0.00289917 C5.861288 -0.00357804 8.26511936 -0.0017442 10.66894531 0.00244141 C14.36006746 0.00781351 18.05106902 0.00247637 21.7421875 -0.00390625 C24.07812527 -0.0032458 26.41406296 -0.00196534 28.75 0 C29.85829163 -0.00202423 30.96658325 -0.00404846 32.10845947 -0.00613403 C33.13002136 -0.00298187 34.15158325 0.00017029 35.20410156 0.00341797 C36.10533752 0.00421356 37.00657349 0.00500916 37.93511963 0.00582886 C40.109375 0.1328125 40.109375 0.1328125 42.109375 1.1328125 C43.4828385 1.28286223 44.8622276 1.38119256 46.2421875 1.44921875 C47.04785156 1.49111328 47.85351562 1.53300781 48.68359375 1.57617188 C49.52535156 1.61548828 50.36710937 1.65480469 51.234375 1.6953125 C52.08386719 1.73849609 52.93335938 1.78167969 53.80859375 1.82617188 C55.90865723 1.93235486 58.00899448 2.03309747 60.109375 2.1328125 C60.109375 2.7928125 60.109375 3.4528125 60.109375 4.1328125 C60.72425781 4.24238281 61.33914063 4.35195312 61.97265625 4.46484375 C62.78089844 4.62339844 63.58914063 4.78195313 64.421875 4.9453125 C65.22238281 5.09613281 66.02289063 5.24695313 66.84765625 5.40234375 C69.34383087 6.20853486 70.43359606 7.15333252 72.109375 9.1328125 C68.95871809 8.67174076 65.97995942 8.09474909 62.921875 7.1953125 C59.03569269 6.11227809 55.1998735 5.33779747 51.22509766 4.66748047 C49.29163567 4.33569221 47.36121611 3.98484831 45.43676758 3.60424805 C35.867581 1.86328606 26.43266072 1.86169156 16.73364258 1.92700195 C13.91673762 1.94534596 11.10016189 1.9475103 8.28320312 1.94726562 C6.46093471 1.95217988 4.63866847 1.9580078 2.81640625 1.96484375 C1.57695 1.96651299 1.57695 1.96651299 0.31245422 1.96821594 C-9.56674457 1.6982796 -9.56674457 1.6982796 -18.890625 4.1328125 C-18.560625 3.1428125 -18.230625 2.1528125 -17.890625 1.1328125 C-11.95035703 -0.16139993 -6.04632818 -0.01112454 0 0 Z " fill="#11F18C" transform="translate(203.890625,6.8671875)"/>
<path d="M0 0 C0.33 0 0.66 0 1 0 C1.65427137 3.4359477 2.29679914 6.87399815 2.9375 10.3125 C3.11990234 11.26962891 3.30230469 12.22675781 3.49023438 13.21289062 C5.64193482 24.83207303 6.16054852 36.12946743 6.125 47.9375 C6.12886719 49.21818359 6.13273437 50.49886719 6.13671875 51.81835938 C6.12879391 59.59658496 5.79159802 67.26163344 5 75 C4.67 75 4.34 75 4 75 C3.98969254 74.37803741 3.97938507 73.75607483 3.96876526 73.11526489 C3.86083465 66.65925291 3.74622596 60.20338431 3.62768555 53.74755859 C3.5842935 51.33613069 3.54262163 48.92467121 3.50268555 46.51318359 C3.44508631 43.05296294 3.38136221 39.59290188 3.31640625 36.1328125 C3.29133751 34.50776291 3.29133751 34.50776291 3.26576233 32.84988403 C3.24581711 31.8489975 3.22587189 30.84811096 3.20532227 29.81689453 C3.18200584 28.49118942 3.18200584 28.49118942 3.15821838 27.13870239 C3.13234999 24.9480278 3.13234999 24.9480278 2 23 C1.77377919 21.29636178 1.59111527 19.58671299 1.4375 17.875 C1.35371094 16.96492188 1.26992188 16.05484375 1.18359375 15.1171875 C1.12300781 14.41851562 1.06242187 13.71984375 1 13 C0.67 13 0.34 13 0 13 C0 8.71 0 4.42 0 0 Z " fill="#78EEE4" transform="translate(420,163)"/>
<path d="M0 0 C12.2502087 11.83752436 22.73823455 27.62214375 30 43 C30 43.66 30 44.32 30 45 C28.125 44.6875 28.125 44.6875 26 44 C24 41 24 41 24 37 C23.34 37 22.68 37 22 37 C21.4121875 35.205625 21.4121875 35.205625 20.8125 33.375 C19.69324202 30.32932685 18.48495408 28.15698038 16.3125 25.75 C14 23 14 23 14 19 C13.34 19 12.68 19 12 19 C12 18.34 12 17.68 12 17 C11.34 17 10.68 17 10 17 C10 16.34 10 15.68 10 15 C9.01 14.67 8.02 14.34 7 14 C6.67 12.02 6.34 10.04 6 8 C4.68 8 3.36 8 2 8 C1.34 5.36 0.68 2.72 0 0 Z " fill="#5EE8D0" transform="translate(375,76)"/>
<path d="M0 0 C1 3 1 3 -0.0625 5.375 C-1.26981201 7.9765016 -1.26981201 7.9765016 -0.3125 10.625 C0.92722396 12.86831001 2.16686339 14.25018778 4 16 C4 16.66 4 17.32 4 18 C5.32 18 6.64 18 8 18 C8 18.66 8 19.32 8 20 C10.43757413 20.02698422 12.87484915 20.04683099 15.3125 20.0625 C16.00279297 20.07087891 16.69308594 20.07925781 17.40429688 20.08789062 C20.5483025 20.10307906 22.99420019 20.00193327 26 19 C26.845625 18.154375 27.69125 17.30875 28.5625 16.4375 C29.366875 15.633125 30.17125 14.82875 31 14 C31.66 14 32.32 14 33 14 C33.33 11.36 33.66 8.72 34 6 C33.34 6 32.68 6 32 6 C31.505 3.03 31.505 3.03 31 0 C33.4037855 1.72772083 34.80983592 3.11312858 35.44140625 6.05859375 C35.66355146 10.30801661 35.24628411 12.57893362 33.0625 16.3125 C28.41819336 20.99594406 22.51383118 23.18767612 16 23.5625 C9.20797774 23.26627473 4.06307463 20.21780522 -0.5 15.3125 C-3.09705327 11.30870955 -3.33235178 8.81910074 -3 4 C-1.5 1.5625 -1.5 1.5625 0 0 Z " fill="#033F21" transform="translate(207,203)"/>
<path d="M0 0 C1.77049689 -0.05410687 3.54146849 -0.09284119 5.3125 -0.125 C6.29863281 -0.14820313 7.28476562 -0.17140625 8.30078125 -0.1953125 C11 0 11 0 14 2 C14 2.66 14 3.32 14 4 C16.63904371 5.41377341 19.07120629 6.37240135 22 7 C22 7.66 22 8.32 22 9 C21.34 9 20.68 9 20 9 C20.15855469 9.54914063 20.31710937 10.09828125 20.48046875 10.6640625 C21.5721069 15.57233029 22.0783555 21.31688796 20.17578125 26.05078125 C19.125 27.6875 19.125 27.6875 17 30 C16.34 30 15.68 30 15 30 C15.309375 29.401875 15.61875 28.80375 15.9375 28.1875 C18.37863431 23.16163523 18.607745 18.49538435 18 13 C15.65027825 8.02943476 13.15218868 5.84701104 8 4 C5.006355 3.50024257 2.02788784 3.19513055 -1 3 C-0.67 2.01 -0.34 1.02 0 0 Z " fill="#25E3A6" transform="translate(266,193)"/>
<path d="M0 0 C2.98274954 3.516029 4.65660488 7.45911646 6.375 11.6875 C6.67664063 12.42701904 6.97828125 13.16653809 7.2890625 13.9284668 C9.43640688 19.31786898 11.32184022 24.75956971 13 30.3125 C13.32943604 31.37827271 13.32943604 31.37827271 13.66552734 32.46557617 C14.66836702 35.93613872 15.41000178 38.57193317 14 42 C13.66226562 41.14535156 13.32453125 40.29070312 12.9765625 39.41015625 C12.53054688 38.30542969 12.08453125 37.20070312 11.625 36.0625 C11.18414062 34.96035156 10.74328125 33.85820312 10.2890625 32.72265625 C9.28958568 29.88769814 9.28958568 29.88769814 7 29 C6.34570312 27.12988281 6.34570312 27.12988281 5.78125 24.703125 C5.57113281 23.8265625 5.36101562 22.95 5.14453125 22.046875 C4.93183594 21.12390625 4.71914063 20.2009375 4.5 19.25 C3.00100031 12.57943583 3.00100031 12.57943583 0.84375 6.109375 C0 4 0 4 0 0 Z " fill="#3FE9CD" transform="translate(405,121)"/>
<path d="M0 0 C2.475 0.495 2.475 0.495 5 1 C5 1.66 5 2.32 5 3 C5.8559375 2.93039063 6.711875 2.86078125 7.59375 2.7890625 C11.73813571 3.04571024 13.93483361 4.26755351 17.5 6.375 C18.09514404 6.72643066 18.69028809 7.07786133 19.3034668 7.43994141 C37.78292358 18.56584717 37.78292358 18.56584717 40 23 C37.61435923 22.42415568 35.33317216 21.77772405 33 21 C33 20.34 33 19.68 33 19 C32.34 19 31.68 19 31 19 C30.67 18.34 30.34 17.68 30 17 C27.84211688 16.05431417 25.64787878 15.19047955 23.4375 14.375 C22.23996094 13.92898437 21.04242188 13.48296875 19.80859375 13.0234375 C18.88175781 12.68570313 17.95492188 12.34796875 17 12 C17 11.34 17 10.68 17 10 C16.34 10 15.68 10 15 10 C15 9.01 15 8.02 15 7 C13.35 7 11.7 7 10 7 C10 6.34 10 5.68 10 5 C8.081875 4.5978125 8.081875 4.5978125 6.125 4.1875 C2.50324145 3.42809901 2.19948132 3.29922197 0 0 Z " fill="#33E8B0" transform="translate(305,25)"/>
<path d="M0 0 C1.92643499 5.77930497 -0.74293077 11.34793859 -3.24609375 16.62890625 C-4.1139017 18.3155953 -4.9900331 19.99803151 -5.875 21.67578125 C-6.88618483 23.76486103 -7.52599314 25.62837751 -8.0625 27.875 C-9.1067692 31.35589734 -10.38922177 32.57307939 -13 35 C-12.81824219 34.34515625 -12.63648437 33.6903125 -12.44921875 33.015625 C-12.19785156 32.10296875 -11.94648438 31.1903125 -11.6875 30.25 C-11.40777344 29.24324219 -11.12804687 28.23648438 -10.83984375 27.19921875 C-10.30239431 25.15191134 -9.81071988 23.09169354 -9.37890625 21.01953125 C-7.6817608 13.03978527 -4.41943308 6.82893221 0 0 Z " fill="#14EF77" transform="translate(40,104)"/>
<path d="M0 0 C-5.4965524 12.25029497 -16.83843531 22.45560336 -26 32 C-26.33 31.34 -26.66 30.68 -27 30 C-26.67 29.34 -26.34 28.68 -26 28 C-25.34 28 -24.68 28 -24 28 C-23.67 26.68 -23.34 25.36 -23 24 C-22.34 24 -21.68 24 -21 24 C-21 23.01 -21 22.02 -21 21 C-20.34 21 -19.68 21 -19 21 C-19 20.34 -19 19.68 -19 19 C-18.195625 18.7525 -17.39125 18.505 -16.5625 18.25 C-15.716875 17.8375 -14.87125 17.425 -14 17 C-13.63451555 15.67511887 -13.3062434 14.33981486 -13 13 C-10.5 10.5 -10.5 10.5 -8 8 C-7.32650839 6.33607955 -6.6590841 4.66967972 -6 3 C-2.68965517 0 -2.68965517 0 0 0 Z " fill="#5FE9DF" transform="translate(388,330)"/>
<path d="M0 0 C0.33 0.99 0.66 1.98 1 3 C1.66 3.33 2.32 3.66 3 4 C2.01 4.66 1.02 5.32 0 6 C-0.33 5.67 -0.66 5.34 -1 5 C-4.67230705 8.07999946 -5.56802365 10.2482602 -6 15 C-6.763125 15.020625 -7.52625 15.04125 -8.3125 15.0625 C-9.199375 15.371875 -10.08625 15.68125 -11 16 C-12.66881935 19.42168849 -12.66881935 19.42168849 -14 23 C-14.99 23.66 -15.98 24.32 -17 25 C-18.06246527 26.96752828 -19.07137808 28.96587579 -20 31 C-20.94696598 28.44319185 -21.04509772 27.16399172 -20.3125 24.5 C-18.85910461 21.73162782 -17.2112448 20.2112448 -15 18 C-13.99890364 16.53558631 -13.02187151 15.05458166 -12.0625 13.5625 C-9.6938938 9.92307989 -7.20824502 6.95496252 -4 4 C-3.236875 3.236875 -2.47375 2.47375 -1.6875 1.6875 C-1.130625 1.130625 -0.57375 0.57375 0 0 Z " fill="#0EF36E" transform="translate(61,81)"/>
<path d="M0 0 C0.99 0 1.98 0 3 0 C2.45310055 7.6949712 0.03428584 14.60276623 -2.4375 21.875 C-2.84548828 23.10992187 -3.25347656 24.34484375 -3.67382812 25.6171875 C-6.7396586 34.7396586 -6.7396586 34.7396586 -9 37 C-8.67098487 30.85838425 -7.36672295 25.34956298 -5.5625 19.5 C-5.34505127 18.78134766 -5.12760254 18.06269531 -4.90356445 17.32226562 C-4.33208936 15.52687601 -3.67257667 13.76001372 -3 12 C-2.34 11.67 -1.68 11.34 -1 11 C-0.5316735 8.41394668 -0.5316735 8.41394668 -0.375 5.4375 C-0.30023438 4.42558594 -0.22546875 3.41367187 -0.1484375 2.37109375 C-0.09945313 1.58863281 -0.05046875 0.80617188 0 0 Z " fill="#6CEDE4" transform="translate(418,256)"/>
<path d="M0 0 C2.65499376 2.65499376 2.32897553 4.04963297 2.375 7.75 C2.26809251 13.00733316 1.79462515 16.10807676 -2 20 C-5.36862905 22.65154465 -8.17712589 23.88030922 -12.4375 24.5 C-16.87386916 23.8773517 -20.16121101 22.23347723 -24 20 C-24 19.34 -24 18.68 -24 18 C-20.76834156 18.71730736 -17.81292078 19.81315074 -14.75 21.0625 C-13.85796875 21.42472656 -12.9659375 21.78695312 -12.046875 22.16015625 C-11.37140625 22.43730469 -10.6959375 22.71445313 -10 23 C-9.67 22.01 -9.34 21.02 -9 20 C-7.35 20 -5.7 20 -4 20 C-4.33 19.01 -4.66 18.02 -5 17 C-3.35 16.34 -1.7 15.68 0 15 C0 10.05 0 5.1 0 0 Z " fill="#034020" transform="translate(189,203)"/>
<path d="M0 0 C0.495 1.98 0.495 1.98 1 4 C0.4225 4.2475 -0.155 4.495 -0.75 4.75 C-3.11753631 5.90818965 -3.11753631 5.90818965 -4.875 8.0625 C-9.0789295 11.89549454 -15.19166144 11.16027886 -20.625 11.1875 C-22.56246094 11.20876953 -22.56246094 11.20876953 -24.5390625 11.23046875 C-27.71408039 11.01903979 -29.46115398 10.86388452 -32 9 C-32.33 8.01 -32.66 7.02 -33 6 C-27.125 7.875 -27.125 7.875 -26 9 C-23.98405418 9.23427778 -21.961526 9.41336124 -19.9375 9.5625 C-18.83277344 9.64628906 -17.72804687 9.73007813 -16.58984375 9.81640625 C-15.30787109 9.90728516 -15.30787109 9.90728516 -14 10 C-14 9.34 -14 8.68 -14 8 C-13.40832031 7.75765625 -12.81664062 7.5153125 -12.20703125 7.265625 C-7.60052754 5.31180613 -3.75748808 3.3938602 0 0 Z " fill="#23E6A3" transform="translate(242,217)"/>
<path d="M0 0 C1.875 0.3125 1.875 0.3125 4 1 C4.66 1.99 5.32 2.98 6 4 C8.05003955 5.19232613 8.05003955 5.19232613 10 6 C10 7.65 10 9.3 10 11 C11.65 11 13.3 11 15 11 C15.33 12.32 15.66 13.64 16 15 C16.66 15 17.32 15 18 15 C18 16.65 18 18.3 18 20 C2.51485149 7.54455446 2.51485149 7.54455446 0 0 Z " fill="#4DEBC6" transform="translate(58,342)"/>
<path d="M0 0 C0.33 0 0.66 0 1 0 C1 4.29 1 8.58 1 13 C0.34 13 -0.32 13 -1 13 C-1.309375 13.86625 -1.309375 13.86625 -1.625 14.75 C-3.57900421 17.94746144 -5.72980558 19.18615223 -9 21 C-12.76171875 21.4609375 -12.76171875 21.4609375 -16.6875 21.375 C-17.99074219 21.36210937 -19.29398438 21.34921875 -20.63671875 21.3359375 C-24 21 -24 21 -27 19 C-27.1875 16.375 -27.1875 16.375 -27 14 C-26.67 14.66 -26.34 15.32 -26 16 C-20.5201714 18.45150227 -15.02442345 20.51740556 -9.09375 18.28125 C-5.07929916 16.17196227 -2.64934836 14.21500137 -1 10 C-0.48385169 6.67314304 -0.18921825 3.36025515 0 0 Z " fill="#34CF92" transform="translate(191,207)"/>
<path d="M0 0 C0.66 0.33 1.32 0.66 2 1 C2 1.66 2 2.32 2 3 C2.78375 3.0825 3.5675 3.165 4.375 3.25 C8.3678367 4.07610414 11.83206352 5.45233001 15.5859375 7.01171875 C18.35046414 8.1434748 21.15199793 9.10063093 24 10 C24 10.33 24 10.66 24 11 C22.741875 11.04125 21.48375 11.0825 20.1875 11.125 C19.47980469 11.14820313 18.77210938 11.17140625 18.04296875 11.1953125 C16 11 16 11 13 9 C10.85426069 8.61845057 10.85426069 8.61845057 8.5625 8.5 C5.21714292 8.27357989 2.92906798 7.65468989 0 6 C0 4.68 0 3.36 0 2 C-0.66 1.67 -1.32 1.34 -2 1 C-1.34 0.67 -0.68 0.34 0 0 Z " fill="#2AECCC" transform="translate(131,394)"/>
<path d="M0 0 C0.97812873 3.05628064 1.00835683 4.85277447 0.00390625 7.890625 C-0.22490234 8.59960938 -0.45371094 9.30859375 -0.68945312 10.0390625 C-0.93630859 10.76867187 -1.18316406 11.49828125 -1.4375 12.25 C-1.80198242 13.36761719 -1.80198242 13.36761719 -2.17382812 14.5078125 C-2.77332981 16.34158235 -3.38544487 18.17122004 -4 20 C-4.66 20 -5.32 20 -6 20 C-6.12246094 20.70511719 -6.24492187 21.41023438 -6.37109375 22.13671875 C-7.03405201 25.15503183 -7.98175575 27.91889442 -9.0625 30.8125 C-9.42472656 31.78832031 -9.78695313 32.76414062 -10.16015625 33.76953125 C-10.57587891 34.87361328 -10.57587891 34.87361328 -11 36 C-11.66 36 -12.32 36 -13 36 C-13.37499436 31.62506581 -12.36481933 29.63168682 -10 26 C-6.50756215 20.02905788 -4.88122722 14.16197468 -3.39477539 7.4597168 C-2.19865037 2.19865037 -2.19865037 2.19865037 0 0 Z " fill="#15EED8" transform="translate(414,268)"/>
<path d="M0 0 C-0.99 1.175625 -0.99 1.175625 -2 2.375 C-4.8578417 6.64149417 -4.57713448 11.04488829 -4 16 C-3.14939987 18.97980201 -3.14939987 18.97980201 -2 21 C-3.32 21.33 -4.64 21.66 -6 22 C-8.65165367 7.42686206 -8.65165367 7.42686206 -7 2 C-4.31423973 -0.86481096 -3.81824158 -1.27274719 0 0 Z " fill="#2BDE92" transform="translate(166,200)"/>
<path d="M0 0 C0.7425 0.185625 1.485 0.37125 2.25 0.5625 C4.87097652 1.17039473 4.87097652 1.17039473 6.875 0.5 C9.35095973 -0.08257876 11.23625237 0.10479811 13.75 0.4375 C14.94882813 0.59025391 14.94882813 0.59025391 16.171875 0.74609375 C16.77515625 0.82988281 17.3784375 0.91367188 18 1 C17.67 1.66 17.34 2.32 17 3 C16.33613281 2.97679687 15.67226562 2.95359375 14.98828125 2.9296875 C8.24107447 2.70021822 8.24107447 2.70021822 2 5 C1.67 5.66 1.34 6.32 1 7 C-1.0625 7.625 -1.0625 7.625 -3 8 C-5 5 -5 5 -5 2 C-3.35 2 -1.7 2 0 2 C0 1.34 0 0.68 0 0 Z " fill="#0BF593" transform="translate(165,192)"/>
<path d="M0 0 C0.33 0.66 0.66 1.32 1 2 C0.06553465 4.03144641 -0.93224776 6.03533587 -2 8 C-2.66 8 -3.32 8 -4 8 C-4.20625 8.66 -4.4125 9.32 -4.625 10 C-6.49463306 14.07919941 -8.96134606 17.69072803 -12 21 C-12.99 21.33 -13.98 21.66 -15 22 C-13.38401715 16.83698561 -10.18832471 12.97797319 -6.9375 8.75 C-6.38255859 8.0178125 -5.82761719 7.285625 -5.25585938 6.53125 C-1.21301882 1.21301882 -1.21301882 1.21301882 0 0 Z " fill="#56E798" transform="translate(56,82)"/>
<path d="M0 0 C1.32 0 2.64 0 4 0 C4 0.66 4 1.32 4 2 C2.20963542 3.00911458 0.41927083 4.01822917 -1.37109375 5.02734375 C-2.97878146 5.8972513 -2.97878146 5.8972513 -4 7 C-12.00812601 9.14960823 -19.70606296 10.51598226 -28 10 C-27.67 9.34 -27.34 8.68 -27 8 C-25.27734375 7.76171875 -25.27734375 7.76171875 -22.9375 7.6875 C-17.86214568 7.2891437 -13.2742414 6.06787571 -8.4375 4.5625 C-7.72263428 4.34489014 -7.00776855 4.12728027 -6.27124023 3.90307617 C-4.4923176 3.33283443 -2.74259422 2.67313206 -1 2 C-0.67 1.34 -0.34 0.68 0 0 Z " fill="#17EDD7" transform="translate(284,402)"/>
<path d="M0 0 C0.33 1.32 0.66 2.64 1 4 C0.34 4 -0.32 4 -1 4 C-1 5.65 -1 7.3 -1 9 C-1.66 9 -2.32 9 -3 9 C-3 9.99 -3 10.98 -3 12 C-4.33333333 13.33333333 -5.66666667 14.66666667 -7 16 C-7.144375 16.70125 -7.28875 17.4025 -7.4375 18.125 C-7.623125 18.74375 -7.80875 19.3625 -8 20 C-10.5625 21.25 -10.5625 21.25 -13 22 C-11.64586345 18.20164698 -9.90567492 15.28875472 -7.5 12.0625 C-4.88788209 8.43906522 -3.22129144 5.33003328 -2 1 C-1.34 0.67 -0.68 0.34 0 0 Z " fill="#15EED9" transform="translate(396,310)"/>
<path d="M0 0 C0.33 0 0.66 0 1 0 C1.27042352 4.8164622 0.42529955 8.32702918 -1.3125 12.8125 C-1.95638672 14.52373047 -1.95638672 14.52373047 -2.61328125 16.26953125 C-4 19 -4 19 -7 20 C-7.73323796 22.01508358 -7.73323796 22.01508358 -8 24 C-9.22444576 20.32666271 -8.65749402 19.5683084 -7.12890625 16.11328125 C-6.51499023 14.7065918 -6.51499023 14.7065918 -5.88867188 13.27148438 C-5.45103516 12.29501953 -5.01339844 11.31855469 -4.5625 10.3125 C-4.12873047 9.32443359 -3.69496094 8.33636719 -3.24804688 7.31835938 C-2.17390467 4.87498095 -1.09095482 2.43590696 0 0 Z " fill="#64EAA5" transform="translate(31,120)"/>
<path d="M0 0 C0.66 0 1.32 0 2 0 C2 0.99 2 1.98 2 3 C2.99 3.33 3.98 3.66 5 4 C5.9921875 5.71484375 5.9921875 5.71484375 6.875 7.9375 C8.7077531 12.3945844 10.85130809 16.5991909 13.14453125 20.8359375 C14 23 14 23 13 26 C11.39368064 23.12619779 9.79033785 20.25074523 8.1875 17.375 C7.73568359 16.56675781 7.28386719 15.75851562 6.81835938 14.92578125 C0 2.6825958 0 2.6825958 0 0 Z " fill="#54E4B8" transform="translate(30,297)"/>
<path d="M0 0 C22.80127986 -0.41277905 22.80127986 -0.41277905 32 2 C32 2.33 32 2.66 32 3 C29.04160645 3.02689449 26.08345573 3.04678741 23.125 3.0625 C21.86236328 3.07506836 21.86236328 3.07506836 20.57421875 3.08789062 C19.76855469 3.09111328 18.96289062 3.09433594 18.1328125 3.09765625 C17.01737061 3.10551147 17.01737061 3.10551147 15.87939453 3.11352539 C14 3 14 3 12 2 C9.9625237 1.77141886 7.91959697 1.58975722 5.875 1.4375 C4.23144531 1.31181641 4.23144531 1.31181641 2.5546875 1.18359375 C1.71164063 1.12300781 0.86859375 1.06242188 0 1 C0 0.67 0 0.34 0 0 Z " fill="#55E8AE" transform="translate(232,6)"/>
<path d="M0 0 C5.625 -0.25 5.625 -0.25 9 2 C11.0492094 2.45139459 11.0492094 2.45139459 13.1875 2.625 C14.445625 2.74875 15.70375 2.8725 17 3 C17 3.66 17 4.32 17 5 C19.97 5.99 22.94 6.98 26 8 C21.8825082 9.02937295 21.07219482 8.97546334 17.3046875 7.63671875 C16.42425781 7.32669922 15.54382813 7.01667969 14.63671875 6.69726562 C13.72535156 6.36404297 12.81398437 6.03082031 11.875 5.6875 C10.49634766 5.20506836 10.49634766 5.20506836 9.08984375 4.71289062 C2.27680357 2.27680357 2.27680357 2.27680357 0 0 Z " fill="#59E7D2" transform="translate(138,402)"/>
<path d="M0 0 C-0.99 1.65 -1.98 3.3 -3 5 C-3.99 4.67 -4.98 4.34 -6 4 C-8.49249817 5.0183679 -8.49249817 5.0183679 -11.0625 6.5 C-13.72265625 7.96875 -13.72265625 7.96875 -16 9 C-16.66 8.67 -17.32 8.34 -18 8 C-17 7 -16 6 -15 5 C-14.566875 4.484375 -14.13375 3.96875 -13.6875 3.4375 C-9.69293904 0.03472585 -5.05320798 -0.24062895 0 0 Z " fill="#0FF272" transform="translate(134,26)"/>
<path d="M0 0 C2.56278699 -0.05420701 5.12441483 -0.09377007 7.6875 -0.125 C8.40873047 -0.14175781 9.12996094 -0.15851563 9.87304688 -0.17578125 C14.09564833 -0.21434382 17.18319351 0.22599135 21 2 C23.32597511 2.3813074 25.65912158 2.72460254 28 3 C28 3.33 28 3.66 28 4 C18.53616378 3.54362211 9.32190498 2.81847768 0 1 C0 0.67 0 0.34 0 0 Z " fill="#5CE9D8" transform="translate(176,414)"/>
<path d="M0 0 C-0.33 0.99 -0.66 1.98 -1 3 C-2.98 3.33 -4.96 3.66 -7 4 C-7 4.66 -7 5.32 -7 6 C-7.66 6 -8.32 6 -9 6 C-9 6.66 -9 7.32 -9 8 C-11.97 8.66 -14.94 9.32 -18 10 C-13.55439134 5.16213175 -6.94553714 0 0 0 Z " fill="#35EADA" transform="translate(298,399)"/>
<path d="M0 0 C0.66 0 1.32 0 2 0 C2 0.66 2 1.32 2 2 C2.66 2 3.32 2 4 2 C4 2.66 4 3.32 4 4 C4.66 4 5.32 4 6 4 C6.26554687 4.72960937 6.53109375 5.45921875 6.8046875 6.2109375 C8.34601638 9.80737156 10.49419745 12.74066915 12.7578125 15.9140625 C14 18 14 18 14 21 C12.125 20.4375 12.125 20.4375 10 19 C9.29508733 16.67793475 8.62787571 14.34406932 8 12 C7.01 11.34 6.02 10.68 5 10 C3.93224776 8.03533587 2.93446535 6.03144641 2 4 C1.608125 3.21625 1.21625 2.4325 0.8125 1.625 C0.544375 1.08875 0.27625 0.5525 0 0 Z " fill="#14EFC0" transform="translate(383,91)"/>
<path d="M0 0 C0.66 1.32 1.32 2.64 2 4 C-0.65774057 7.98661086 -3.49917568 9.49972523 -8 11 C-8.33 11.99 -8.66 12.98 -9 14 C-9.66 14 -10.32 14 -11 14 C-9.42219077 10.28954753 -7.09296752 7.70093616 -4.375 4.75 C-3.55773437 3.85796875 -2.74046875 2.9659375 -1.8984375 2.046875 C-1.27195312 1.37140625 -0.64546875 0.6959375 0 0 Z " fill="#47E988" transform="translate(68,68)"/>
<path d="M0 0 C3 1 3 1 4.1640625 2.7265625 C5.90418711 7.45905092 6.07192142 13.34547761 4.171875 18.05078125 C3.125 19.6875 3.125 19.6875 1 22 C0.34 22 -0.32 22 -1 22 C-0.690625 21.401875 -0.38125 20.80375 -0.0625 20.1875 C2.75292457 14.39103766 2.95748468 7.99213961 1 1.875 C0.67 1.25625 0.34 0.6375 0 0 Z " fill="#34D1A1" transform="translate(282,201)"/>
<path d="M0 0 C0 0.99 0 1.98 0 3 C-3.7655872 5.941865 -8.27906822 7.43686698 -13 8 C-15.24609375 7.546875 -15.24609375 7.546875 -17 7 C-14.73272667 5.82592979 -12.46165376 4.66060261 -10.1875 3.5 C-9.22360352 2.99919922 -9.22360352 2.99919922 -8.24023438 2.48828125 C-5.30452301 0.99760916 -3.33873483 0 0 0 Z " fill="#4BE893" transform="translate(139,20)"/>
<path d="M0 0 C0.515625 0.7425 1.03125 1.485 1.5625 2.25 C4.81547189 5.92001957 8.15574889 8.50486925 13.01953125 9.3515625 C17.72871328 9.54965429 21.00884598 8.39469241 25 6 C24 9 24 9 21 11 C14.12999761 11.96688922 8.14450323 11.64388018 2.42578125 7.51171875 C0.25548761 5.21061289 0 3.08747359 0 0 Z " fill="#35D3A0" transform="translate(255,217)"/>
<path d="M0 0 C1.35413338 4.34491716 0.74997802 7.8368944 -1 12 C-3.0625 13.375 -3.0625 13.375 -5 14 C-5.33 14.66 -5.66 15.32 -6 16 C-6.66 16 -7.32 16 -8 16 C-6.42986223 10.03347646 -3.24970218 5.17090975 0 0 Z " fill="#58EB9B" transform="translate(40,104)"/>
<path d="M0 0 C0.33 0.99 0.66 1.98 1 3 C1.66 3.33 2.32 3.66 3 4 C2.01 4.66 1.02 5.32 0 6 C-0.33 5.67 -0.66 5.34 -1 5 C-4.67230705 8.07999946 -5.56802365 10.2482602 -6 15 C-6.99 14.67 -7.98 14.34 -9 14 C-9.3125 11.8125 -9.3125 11.8125 -9 9 C-6.75 6.4375 -6.75 6.4375 -4 4 C-3.236875 3.236875 -2.47375 2.47375 -1.6875 1.6875 C-1.130625 1.130625 -0.57375 0.57375 0 0 Z " fill="#06F768" transform="translate(61,81)"/>
<path d="M0 0 C3.59757585 1.54895627 6.12532462 3.73695948 9 6.375 C9.845625 7.14585938 10.69125 7.91671875 11.5625 8.7109375 C13.75248722 10.76756012 15.89052389 12.86122561 18 15 C15.03824877 14.38722388 13.61941217 13.74627478 11 12 C11 11.34 11 10.68 11 10 C9.68 10 8.36 10 7 10 C7 8.68 7 7.36 7 6 C6.21625 5.7525 5.4325 5.505 4.625 5.25 C1.67682892 3.84610901 1.0975223 2.99324263 0 0 Z " fill="#43E5BB" transform="translate(345,48)"/>
<path d="M0 0 C0.33 0 0.66 0 1 0 C1.31610149 6.00592824 0.5245783 9.44592773 -2 15 C-2.165 16.216875 -2.33 17.43375 -2.5 18.6875 C-3.01302454 22.08628755 -3.71040572 23.51131057 -6 26 C-5.39502042 19.93629658 -4.1366972 14.34485758 -2.4375 8.5 C-2.20353516 7.67757812 -1.96957031 6.85515625 -1.72851562 6.0078125 C-1.15757928 4.00370942 -0.57953295 2.00163409 0 0 Z " fill="#74EEB4" transform="translate(21,144)"/>
<path d="M0 0 C7.625 0.875 7.625 0.875 11 2 C11 2.66 11 3.32 11 4 C13.97 4.495 13.97 4.495 17 5 C17 5.66 17 6.32 17 7 C17.66 7.33 18.32 7.66 19 8 C14.12001196 7.5215698 11.11715202 6.57322001 7 4 C4.68308546 3.27833809 2.35151077 2.59940471 0 2 C0 1.34 0 0.68 0 0 Z " fill="#28E49F" transform="translate(264,9)"/>
<path d="M0 0 C1.98 0 3.96 0 6 0 C2.6266693 2.80688169 -1.05975931 4.53750866 -5.0625 6.25 C-5.68705078 6.53101563 -6.31160156 6.81203125 -6.95507812 7.1015625 C-11.63800023 9.12066659 -11.63800023 9.12066659 -15 8 C-14.34 8 -13.68 8 -13 8 C-13 7.34 -13 6.68 -13 6 C-11.58774074 5.32404685 -10.16997095 4.65959941 -8.75 4 C-7.96109375 3.62875 -7.1721875 3.2575 -6.359375 2.875 C-4 2 -4 2 0 2 C0 1.34 0 0.68 0 0 Z " fill="#5FE9DF" transform="translate(304,397)"/>
<path d="M0 0 C-1.56097474 1.1063219 -3.12385327 2.20995785 -4.6875 3.3125 C-5.55761719 3.92738281 -6.42773438 4.54226563 -7.32421875 5.17578125 C-12.36872439 8.61488217 -12.36872439 8.61488217 -15 10 C-15.66 9.67 -16.32 9.34 -17 9 C-14.7459927 5.44104111 -12.88230354 4.45586383 -9 3 C-7.9805881 2.01979625 -6.97753644 1.02196992 -6 0 C-3 -1 -3 -1 0 0 Z " fill="#56E7DE" transform="translate(338,381)"/>
<path d="M0 0 C0.66 0.33 1.32 0.66 2 1 C-0.03606759 5.60794244 -2.41178822 8.50621484 -6 12 C-6.33 12.99 -6.66 13.98 -7 15 C-9.5625 16.1875 -9.5625 16.1875 -12 17 C-12.33 16.34 -12.66 15.68 -13 15 C-12.34 15 -11.68 15 -11 15 C-11 14.34 -11 13.68 -11 13 C-10.21625 12.38125 -9.4325 11.7625 -8.625 11.125 C-6.13770844 9.11147826 -5.14461734 7.91357141 -4 5 C-3.34 5 -2.68 5 -2 5 C-1.34 3.35 -0.68 1.7 0 0 Z " fill="#11F0DA" transform="translate(381,332)"/>
<path d="M0 0 C4.48614347 4.21425599 8.63977412 8.82893193 12 14 C12 14.99 12 15.98 12 17 C11.34 17 10.68 17 10 17 C10 16.34 10 15.68 10 15 C9.01 14.67 8.02 14.34 7 14 C6.67 12.02 6.34 10.04 6 8 C4.68 8 3.36 8 2 8 C1.34 5.36 0.68 2.72 0 0 Z " fill="#54E8C9" transform="translate(375,76)"/>
<path d="M0 0 C0.33 0.99 0.66 1.98 1 3 C-1.28431738 5.35800504 -3.0081024 6.88720897 -6.3359375 7.265625 C-8.56920205 7.251535 -10.77382441 7.17460201 -13 7 C-13.33 7.66 -13.66 8.32 -14 9 C-16.31 8.34 -18.62 7.68 -21 7 C-21 6.67 -21 6.34 -21 6 C-19.60587891 5.97873047 -19.60587891 5.97873047 -18.18359375 5.95703125 C-10.50658304 5.66083793 -5.70808548 5.30036509 0 0 Z " fill="#11F19D" transform="translate(189,222)"/>
<path d="M0 0 C-1.65 0.33 -3.3 0.66 -5 1 C-5 1.66 -5 2.32 -5 3 C-7.79738782 4.5067748 -10.40322432 5.48224115 -13.5 6.1875 C-14.2528125 6.36667969 -15.005625 6.54585937 -15.78125 6.73046875 C-18.16365031 7.01988006 -19.71142591 6.63548155 -22 6 C-18.901466 4.79741744 -15.79541934 3.61559217 -12.6875 2.4375 C-11.80642578 2.09525391 -10.92535156 1.75300781 -10.01757812 1.40039062 C-9.17001953 1.08134766 -8.32246094 0.76230469 -7.44921875 0.43359375 C-6.27879028 -0.01415405 -6.27879028 -0.01415405 -5.0847168 -0.47094727 C-3 -1 -3 -1 0 0 Z " fill="#6AEBAA" transform="translate(161,13)"/>
<path d="M0 0 C2.64 0 5.28 0 8 0 C8 0.66 8 1.32 8 2 C8.61488281 2.10957031 9.22976563 2.21914062 9.86328125 2.33203125 C10.67152344 2.49058594 11.47976563 2.64914063 12.3125 2.8125 C13.11300781 2.96332031 13.91351563 3.11414063 14.73828125 3.26953125 C17.23445587 4.07572236 18.32422106 5.02052002 20 7 C12.88944539 5.95943103 6.52506431 3.92962071 0 1 C0 0.67 0 0.34 0 0 Z " fill="#1CEA9A" transform="translate(256,9)"/>
<path d="M0 0 C0.66 0.33 1.32 0.66 2 1 C1.566875 1.38929688 1.13375 1.77859375 0.6875 2.1796875 C-2.80657883 5.68994262 -4.45040251 8.14311279 -4.5625 13.1875 C-4.48930852 16.28593925 -4.29068784 17.61549604 -2.40234375 20.11328125 C-1.93957031 20.73589844 -1.47679687 21.35851562 -1 22 C-1.33 22.99 -1.66 23.98 -2 25 C-6.20525515 20.26908796 -6.71086211 16.19646713 -6.5390625 9.92578125 C-5.71199806 5.43685906 -3.41764272 2.88872182 0 0 Z " fill="#024023" transform="translate(261,198)"/>
<path d="M0 0 C4.3573226 1.47130373 7.71934134 3.83080615 11.3125 6.625 C11.86228516 7.04523437 12.41207031 7.46546875 12.97851562 7.8984375 C14.32292168 8.92720039 15.66201413 9.9629009 17 11 C14 12 14 12 11.8125 11.0625 C11.214375 10.711875 10.61625 10.36125 10 10 C10 9.34 10 8.68 10 8 C9.34 8 8.68 8 8 8 C7.67 7.34 7.34 6.68 7 6 C6.01 5.525625 5.02 5.05125 4 4.5625 C1 3 1 3 0 0 Z " fill="#52E5BC" transform="translate(328,36)"/>
<path d="M0 0 C7.69470323 1.90281165 14.17880719 4.99287343 21 9 C17.25 10.125 17.25 10.125 15 9 C15 8.34 15 7.68 15 7 C13.68 7 12.36 7 11 7 C11 6.34 11 5.68 11 5 C10.29875 5.0825 9.5975 5.165 8.875 5.25 C5.05106601 4.917484 3.00393972 3.30534909 0 1 C0 0.67 0 0.34 0 0 Z " fill="#6BE9C2" transform="translate(293,18)"/>
<path d="M0 0 C0.99 0.33 1.98 0.66 3 1 C2.64037102 3.85179471 2.11014144 4.89395384 0.00390625 6.921875 C-0.80175781 7.52515625 -1.60742188 8.1284375 -2.4375 8.75 C-3.24058594 9.36359375 -4.04367187 9.9771875 -4.87109375 10.609375 C-7 12 -7 12 -9 12 C-8.67 11.01 -8.34 10.02 -8 9 C-7.01 9 -6.02 9 -5 9 C-4.731875 8.443125 -4.46375 7.88625 -4.1875 7.3125 C-2.89877353 4.80287477 -1.47073522 2.40665764 0 0 Z " fill="#38E9DA" transform="translate(347,368)"/>
<path d="M0 0 C0.66 0 1.32 0 2 0 C4.74390859 5.89174281 7.06375702 11.79522136 9 18 C8.34 18.33 7.68 18.66 7 19 C5.82905995 16.2100561 4.66309073 13.41821403 3.5 10.625 C2.99919922 9.43390625 2.99919922 9.43390625 2.48828125 8.21875 C2.17246094 7.45820313 1.85664063 6.69765625 1.53125 5.9140625 C1.23798828 5.2123291 0.94472656 4.5105957 0.64257812 3.78759766 C0 2 0 2 0 0 Z " fill="#52E6B8" transform="translate(22,278)"/>
<path d="M0 0 C0.99 0.66 1.98 1.32 3 2 C3 2.66 3 3.32 3 4 C2.44183594 3.83886719 1.88367188 3.67773438 1.30859375 3.51171875 C-4.43236379 2.2391884 -10.73773562 2.193459 -16 5 C-15 2 -15 2 -13.0625 0.8125 C-8.74024257 -0.33422136 -4.44552003 -0.51236502 0 0 Z " fill="#38D893" transform="translate(182,194)"/>
<path d="M0 0 C1.32 0.33 2.64 0.66 4 1 C1.13462959 4.02455766 -1.26771055 6.1982051 -5 8 C-5.99 9.485 -5.99 9.485 -7 11 C-7.99 11 -8.98 11 -10 11 C-8.65427408 6.96282223 -5.96886397 5.37468459 -2.55859375 3.1484375 C-0.84427485 2.06753066 -0.84427485 2.06753066 0 0 Z " fill="#0CF46A" transform="translate(103,40)"/>
<path d="M0 0 C1.32 0 2.64 0 4 0 C4 0.66 4 1.32 4 2 C5.65 2 7.3 2 9 2 C9.33 3.65 9.66 5.3 10 7 C10.66 7 11.32 7 12 7 C11.67 7.99 11.34 8.98 11 10 C9.16375669 8.52444734 7.3310715 7.04446569 5.5 5.5625 C4.4790625 4.73878906 3.458125 3.91507812 2.40625 3.06640625 C1.6121875 2.38449219 0.818125 1.70257813 0 1 C0 0.67 0 0.34 0 0 Z " fill="#45E5C2" transform="translate(76,362)"/>
<path d="M0 0 C0.33 1.32 0.66 2.64 1 4 C-0.65 4 -2.3 4 -4 4 C-4.2475 4.61875 -4.495 5.2375 -4.75 5.875 C-6.23101402 8.39272383 -7.25177691 9.08392564 -10 10 C-10.99 9.67 -11.98 9.34 -13 9 C-11.20966193 7.68568828 -9.41768797 6.3736047 -7.625 5.0625 C-6.62726563 4.33160156 -5.62953125 3.60070313 -4.6015625 2.84765625 C-2 1 -2 1 0 0 Z " fill="#4CE68D" transform="translate(107,36)"/>
<path d="M0 0 C3.59253891 3.45436433 6.79239749 7.19364503 10 11 C9.67 11.66 9.34 12.32 9 13 C6.75 12.5625 6.75 12.5625 4 11 C2.02491752 7.6619213 0 3.93787638 0 0 Z " fill="#22EBB3" transform="translate(52,330)"/>
<path d="M0 0 C0.66 0 1.32 0 2 0 C1.50506533 4.75416122 0.27876594 7.55220583 -2.5625 11.375 C-3.52349609 12.68597656 -3.52349609 12.68597656 -4.50390625 14.0234375 C-4.99761719 14.67570312 -5.49132812 15.32796875 -6 16 C-6.58203125 14.140625 -6.58203125 14.140625 -7 12 C-5.6875 9.75 -5.6875 9.75 -4 8 C-3.34 8 -2.68 8 -2 8 C-2 7.01 -2 6.02 -2 5 C-1.34 5 -0.68 5 0 5 C0 3.35 0 1.7 0 0 Z " fill="#64E9DF" transform="translate(395,314)"/>
<path d="M0 0 C1.875 0.3125 1.875 0.3125 4 1 C4.66 1.99 5.32 2.98 6 4 C8.05003955 5.19232613 8.05003955 5.19232613 10 6 C10 7.32 10 8.64 10 10 C6.82028869 8.62442924 4.95149011 7.10041354 2.75 4.4375 C1.96882813 3.50744141 1.96882813 3.50744141 1.171875 2.55859375 C0 1 0 1 0 0 Z " fill="#41E5BB" transform="translate(58,342)"/>
<path d="M0 0 C1.32 0 2.64 0 4 0 C4 0.66 4 1.32 4 2 C6.97 2.495 6.97 2.495 10 3 C10 3.66 10 4.32 10 5 C10.61875 5.0825 11.2375 5.165 11.875 5.25 C14 6 14 6 15.25 8.0625 C15.4975 8.701875 15.745 9.34125 16 10 C12.06342758 8.56786488 8.71068644 6.69667846 5.1875 4.4375 C4.21167969 3.81746094 3.23585938 3.19742187 2.23046875 2.55859375 C1.49441406 2.04425781 0.75835937 1.52992188 0 1 C0 0.67 0 0.34 0 0 Z " fill="#5AE5CA" transform="translate(98,380)"/>
<path d="M0 0 C1.32 0 2.64 0 4 0 C5.7479503 5.24385089 6.19392201 9.47322267 6 15 C5.01 15.495 5.01 15.495 4 16 C3.96261719 15.26394531 3.92523438 14.52789062 3.88671875 13.76953125 C3.47015527 6.39587342 3.47015527 6.39587342 0 0 Z " fill="#18EEA3" transform="translate(239,201)"/>
<path d="M0 0 C-0.928125 0.5775 -1.85625 1.155 -2.8125 1.75 C-7.52424825 5.04033624 -7.52424825 5.04033624 -9.3984375 10.25390625 C-9.6588548 12.50264484 -9.86000932 14.7408401 -10 17 C-10.33 17 -10.66 17 -11 17 C-11.58956456 5.95112352 -11.58956456 5.95112352 -8 1 C-4.66529197 -0.91745712 -3.69911329 -1.23303776 0 0 Z " fill="#37D09A" transform="translate(265,197)"/>
<path d="M0 0 C0.66 0 1.32 0 2 0 C2.33 4.62 2.66 9.24 3 14 C2.34 14 1.68 14 1 14 C-0.04976964 10.85069107 -0.10131595 8.61185544 -0.0625 5.3125 C-0.05347656 4.31863281 -0.04445312 3.32476562 -0.03515625 2.30078125 C-0.02355469 1.54152344 -0.01195312 0.78226563 0 0 Z " fill="#1FE9A6" transform="translate(252,206)"/>
<path d="M0 0 C2.0234375 0.5546875 2.0234375 0.5546875 4.0234375 2.5546875 C1.3834375 2.2246875 -1.2565625 1.8946875 -3.9765625 1.5546875 C-3.9765625 2.2146875 -3.9765625 2.8746875 -3.9765625 3.5546875 C-6.2865625 3.5546875 -8.5965625 3.5546875 -10.9765625 3.5546875 C-7.76301967 -1.05604787 -5.11196364 -0.69631398 0 0 Z " fill="#02391B" transform="translate(218.9765625,199.4453125)"/>
<path d="M0 0 C-0.66 0 -1.32 0 -2 0 C-2 0.66 -2 1.32 -2 2 C-3.57914015 2.53341184 -5.16354387 3.05125763 -6.75 3.5625 C-7.63171875 3.85253906 -8.5134375 4.14257812 -9.421875 4.44140625 C-12.07834316 5.01697435 -13.47031106 4.89248371 -16 4 C-14.58521865 3.35004703 -13.16808513 2.70521278 -11.75 2.0625 C-10.96109375 1.70285156 -10.1721875 1.34320313 -9.359375 0.97265625 C-3.87046632 -1.29015544 -3.87046632 -1.29015544 0 0 Z " fill="#57E69E" transform="translate(172,10)"/>
<path d="M0 0 C1.00796724 3.16069729 0.97083624 5.33511958 0.25 8.5625 C0.09015625 9.32691406 -0.0696875 10.09132812 -0.234375 10.87890625 C-1 13 -1 13 -4 16 C-3.67 12.04 -3.34 8.08 -3 4 C-2.34 4 -1.68 4 -1 4 C-0.67 2.68 -0.34 1.36 0 0 Z " fill="#0EF37D" transform="translate(22,154)"/>
<path d="M0 0 C1.890625 0.234375 1.890625 0.234375 4 1 C6.32767422 5.20371015 7.46328919 10.21267836 7 15 C4.66302971 12.66302971 3.72905946 10.50902101 2.375 7.5 C1.92898438 6.5203125 1.48296875 5.540625 1.0234375 4.53125 C0 2 0 2 0 0 Z " fill="#1BEBC5" transform="translate(401,120)"/>
<path d="M0 0 C2.4375 1.5 2.4375 1.5 4 3 C1.53665839 4.2316708 0.33418611 3.95802288 -2.375 3.625 C-3.14585937 3.53476563 -3.91671875 3.44453125 -4.7109375 3.3515625 C-6.85515749 3.02224544 -8.90663641 2.56396553 -11 2 C-7.35187527 -0.33479983 -4.25812212 -0.38018947 0 0 Z " fill="#02391C" transform="translate(234,200)"/>
<path d="M0 0 C2.66355234 -0.39169887 4.39224373 -0.40564529 6.66796875 1.11328125 C8.1510888 2.36389317 9.57954352 3.67864514 11 5 C8 6 8 6 5.375 5.25 C3 4 3 4 2 1 C1.34 0.67 0.68 0.34 0 0 Z " fill="#18EDC1" transform="translate(110,385)"/>
<path d="M0 0 C0.66 0 1.32 0 2 0 C1.91253716 1.43861294 1.80434652 2.87597508 1.6875 4.3125 C1.62949219 5.11300781 1.57148438 5.91351563 1.51171875 6.73828125 C0.91793306 9.36272334 0.04219706 10.30820672 -2 12 C-2.28571429 3.42857143 -2.28571429 3.42857143 0 0 Z " fill="#3CEBDC" transform="translate(399,304)"/>
<path d="M0 0 C3.42931954 3.7559214 4.56429083 8.23466745 6 13 C3 12 3 12 2.05078125 10.29296875 C1.80714844 9.59816406 1.56351562 8.90335938 1.3125 8.1875 C1.06113281 7.50042969 0.80976563 6.81335938 0.55078125 6.10546875 C0 4 0 4 0 0 Z " fill="#73EDDC" transform="translate(405,121)"/>
<path d="M0 0 C2.97 0.33 5.94 0.66 9 1 C9 1.99 9 2.98 9 4 C9.66 4 10.32 4 11 4 C11 4.66 11 5.32 11 6 C6.49197399 4.74194623 3.5087188 3.09592835 0 0 Z " fill="#4CE9CC" transform="translate(114,390)"/>
<path d="M0 0 C-1.36944102 2.94956528 -2.87830409 5.52468811 -5 8 C-5.66 8 -6.32 8 -7 8 C-6.65930765 4.84859577 -6.41923159 3.39218439 -4.0625 1.1875 C-2 0 -2 0 0 0 Z " fill="#4BE8DD" transform="translate(388,330)"/>
<path d="M0 0 C2.97 0.495 2.97 0.495 6 1 C5.67 1.99 5.34 2.98 5 4 C1.4375 5.1875 1.4375 5.1875 -2 6 C-2 4.68 -2 3.36 -2 2 C-1.34 2 -0.68 2 0 2 C0 1.34 0 0.68 0 0 Z " fill="#0EF3A9" transform="translate(260,192)"/>
<path d="M0 0 C-1.45537568 0.83848804 -2.91440373 1.67063934 -4.375 2.5 C-5.59316406 3.19609375 -5.59316406 3.19609375 -6.8359375 3.90625 C-9 5 -9 5 -11 5 C-10.67 3.68 -10.34 2.36 -10 1 C-3.375 -1.125 -3.375 -1.125 0 0 Z " fill="#5BE9DF" transform="translate(321,392)"/>
<path d="M0 0 C1.84187025 2.76280538 2.72248277 4.80707826 3.6875 7.9375 C3.95949219 8.79214844 4.23148437 9.64679688 4.51171875 10.52734375 C5.02075548 13.10510574 4.84888744 14.54449337 4 17 C1.16625922 11.33251843 0.36776168 6.30267439 0 0 Z " fill="#7EF2E3" transform="translate(415,146)"/>
<path d="M0 0 C0.66 0.33 1.32 0.66 2 1 C2 1.66 2 2.32 2 3 C4.97 3.495 4.97 3.495 8 4 C8 4.66 8 5.32 8 6 C5.36 5.67 2.72 5.34 0 5 C0 4.01 0 3.02 0 2 C-0.66 1.67 -1.32 1.34 -2 1 C-1.34 0.67 -0.68 0.34 0 0 Z " fill="#18EDC4" transform="translate(131,394)"/>
<path d="M0 0 C0.33 0.66 0.66 1.32 1 2 C0.34 2 -0.32 2 -1 2 C-1 2.99 -1 3.98 -1 5 C-2.32 5.33 -3.64 5.66 -5 6 C-5 6.99 -5 7.98 -5 9 C-6.32 8.67 -7.64 8.34 -9 8 C-8.34 7.67 -7.68 7.34 -7 7 C-5.86649466 4.98330173 -5.86649466 4.98330173 -5 3 C-4.01 3 -3.02 3 -2 3 C-2 2.34 -2 1.68 -2 1 C-1.34 0.67 -0.68 0.34 0 0 Z " fill="#12EFDA" transform="translate(358,359)"/>
<path d="M0 0 C-3.44069624 2.29379749 -4.72290301 3 -9 3 C-8.67 2.01 -8.34 1.02 -8 0 C-5.04215769 -1.22393475 -3.00272755 -0.96516243 0 0 Z M-12 3 C-9 4 -9 4 -9 4 Z " fill="#09F577" transform="translate(156,18)"/>
<path d="M0 0 C3.82097239 0.53069061 6.06171403 1.49701566 9 4 C6.36 4 3.72 4 1 4 C0.67 2.68 0.34 1.36 0 0 Z " fill="#1FE9CA" transform="translate(175,410)"/>
<path d="M0 0 C3.66881155 0.70554068 6.70450534 2.27735506 10 4 C10 4.33 10 4.66 10 5 C3.375 4.25 3.375 4.25 0 2 C0 1.34 0 0.68 0 0 Z " fill="#013015" transform="translate(165,221)"/>
<path d="M0 0 C2.58949269 1.29474635 2.96035764 2.32663393 4 5 C4.125 7.75 4.125 7.75 4 10 C1.4375 7.8125 1.4375 7.8125 -1 5 C-0.8125 2.1875 -0.8125 2.1875 0 0 Z " fill="#24EABC" transform="translate(373,74)"/>
<path d="M0 0 C7.75 0.75 7.75 0.75 10 3 C7.25 3.75 7.25 3.75 4 4 C1.625 2.0625 1.625 2.0625 0 0 Z " fill="#15EEA1" transform="translate(282,17)"/>
<path d="M0 0 C0.99 0 1.98 0 3 0 C3 0.66 3 1.32 3 2 C2.34 2 1.68 2 1 2 C0.67 3.32 0.34 4.64 0 6 C-1.32 5.67 -2.64 5.34 -4 5 C-3.67 4.34 -3.34 3.68 -3 3 C-2.34 3 -1.68 3 -1 3 C-0.67 2.01 -0.34 1.02 0 0 Z " fill="#14EEDA" transform="translate(364,352)"/>
<path d="M0 0 C0.66 0 1.32 0 2 0 C1.38461538 5.53846154 1.38461538 5.53846154 -0.5625 7.875 C-1.036875 8.24625 -1.51125 8.6175 -2 9 C-1.125 1.125 -1.125 1.125 0 0 Z " fill="#1AED75" transform="translate(42,103)"/>
<path d="M0 0 C1.258125 0.12375 2.51625 0.2475 3.8125 0.375 C4.87404297 0.47941406 4.87404297 0.47941406 5.95703125 0.5859375 C8 1 8 1 11 3 C9.741875 3.020625 8.48375 3.04125 7.1875 3.0625 C6.47980469 3.07410156 5.77210938 3.08570313 5.04296875 3.09765625 C3 3 3 3 0 2 C0 1.34 0 0.68 0 0 Z " fill="#75ECC6" transform="translate(264,9)"/>
<path d="M0 0 C3.91402949 1.26941497 5.79072873 2.51167694 8 6 C5.03 5.505 5.03 5.505 2 5 C2 4.01 2 3.02 2 2 C1.34 2 0.68 2 0 2 C0 1.34 0 0.68 0 0 Z " fill="#16EEBC" transform="translate(86,367)"/>
<path d="M0 0 C0.33 0.66 0.66 1.32 1 2 C3.02463255 2.65213292 3.02463255 2.65213292 5 3 C5.33 4.32 5.66 5.64 6 7 C4.125 6.6875 4.125 6.6875 2 6 C0 3 0 3 0 0 Z " fill="#42E9CB" transform="translate(399,114)"/>
<path d="M0 0 C0.33 0.66 0.66 1.32 1 2 C0.06553465 4.03144641 -0.93224776 6.03533587 -2 8 C-2.66 8 -3.32 8 -4 8 C-3.50168276 4.31245243 -2.89932357 2.39509338 0 0 Z " fill="#47E68A" transform="translate(56,82)"/>
<path d="M0 0 C6.875 3.75 6.875 3.75 8 6 C5.03 5.505 5.03 5.505 2 5 C2 4.01 2 3.02 2 2 C1.34 2 0.68 2 0 2 C0 1.34 0 0.68 0 0 Z " fill="#14EFBF" transform="translate(100,377)"/>
<path d="M0 0 C2.475 0.495 2.475 0.495 5 1 C5 1.99 5 2.98 5 4 C5.99 4.33 6.98 4.66 8 5 C6.68 5 5.36 5 4 5 C4 4.34 4 3.68 4 3 C2.68 3 1.36 3 0 3 C0 2.01 0 1.02 0 0 Z " fill="#19EDB8" transform="translate(76,359)"/>
<path d="M0 0 C0.99 0 1.98 0 3 0 C1.75023244 3.65316671 1.32901247 4.78065836 -2 7 C-2 5.68 -2 4.36 -2 3 C-1.34 3 -0.68 3 0 3 C0 2.01 0 1.02 0 0 Z " fill="#38E7D6" transform="translate(359,358)"/>
<path d="M0 0 C2.43840236 2.43840236 3.62292893 4.85240898 5 8 C4.67 8.66 4.34 9.32 4 10 C2.02 7.03 0.04 4.06 -2 1 C-1.34 0.67 -0.68 0.34 0 0 Z " fill="#5FE6C2" transform="translate(51,330)"/>
<path d="M0 0 C0.66 0 1.32 0 2 0 C2 0.99 2 1.98 2 3 C2.99 3.33 3.98 3.66 5 4 C5.6875 6.0625 5.6875 6.0625 6 8 C4.125 7.375 4.125 7.375 2 6 C0.75 2.875 0.75 2.875 0 0 Z " fill="#41E3AE" transform="translate(30,297)"/>
<path d="M0 0 C0.33 0.66 0.66 1.32 1 2 C1.99 2.33 2.98 2.66 4 3 C4.6875 5.0625 4.6875 5.0625 5 7 C2.525 6.01 2.525 6.01 0 5 C0 3.35 0 1.7 0 0 Z " fill="#23DE94" transform="translate(164,221)"/>
<path d="M0 0 C0.99 0 1.98 0 3 0 C5 3 5 3 5 6 C4.34 6 3.68 6 3 6 C3 5.34 3 4.68 3 4 C2.01 3.67 1.02 3.34 0 3 C0 2.01 0 1.02 0 0 Z " fill="#40E5C2" transform="translate(382,87)"/>
<path d="M0 0 C3.36591866 1.44253657 5.51047079 3.33264727 8 6 C5.21788056 5.62403791 3.4120716 5.32681541 1.1875 3.5625 C0 2 0 2 0 0 Z " fill="#53E5BC" transform="translate(345,48)"/>
<path d="M0 0 C2.0625 0.4375 2.0625 0.4375 4 1 C2.6875 3 2.6875 3 1 5 C0.01 5 -0.98 5 -2 5 C-1.125 1.125 -1.125 1.125 0 0 Z " fill="#35E67E" transform="translate(92,46)"/>
<path d="M0 0 C-3.44450737 2.29633824 -5.93812283 2.54016485 -10 3 C-7.29536552 -0.8183075 -4.37912428 -0.24787496 0 0 Z " fill="#79EFE9" transform="translate(280,409)"/>
<path d="M0 0 C0.99 0.33 1.98 0.66 3 1 C-2.75 6 -2.75 6 -5 6 C-4.67 5.01 -4.34 4.02 -4 3 C-3.01 3 -2.02 3 -1 3 C-0.67 2.01 -0.34 1.02 0 0 Z " fill="#66E8E1" transform="translate(343,374)"/>
<path d="M0 0 C2.875 0.1875 2.875 0.1875 6 1 C7.375 3.5625 7.375 3.5625 8 6 C4.63408134 4.55746343 2.48952921 2.66735273 0 0 Z " fill="#57E9CC" transform="translate(88,372)"/>
<path d="M0 0 C0.33 0.99 0.66 1.98 1 3 C-1.97 5.475 -1.97 5.475 -5 8 C-5.66 7.67 -6.32 7.34 -7 7 C-4.69 4.69 -2.38 2.38 0 0 Z " fill="#59E595" transform="translate(76,60)"/>
<path d="M0 0 C3.79588866 0.54226981 5.47211993 2.20127563 8 5 C5.61435923 4.42415568 3.33317216 3.77772405 1 3 C0.67 2.01 0.34 1.02 0 0 Z " fill="#44E3B9" transform="translate(337,43)"/>
</svg>
